/* XPM */
static char *ba2b31b8da4548a592aafa837c4552952lsfAzsbL4ZQElRj[] = {
/* columns rows colors chars-per-pixel */
"64 64 17 1 ",
"  c #F7CE46",
". c #FBDC75",
"X c #D9A453",
"o c #C88644",
"O c #6F533A",
"+ c #624831",
"@ c #704C2E",
"# c #7C512B",
"$ c #EA8E16",
"% c #EAA616",
"& c #896445",
"* c #FABF29",
"= c #FADE29",
"- c #A28166",
"; c #C8A671",
": c #BC986D",
"> c #FFF9CF",
/* pixels */
"          ..................................................    ",
"             .................................................  ",
"                ............................................... ",
"                  ......................            ........... ",
"                    ............  ..                      ......",
"                      ...........            XooooooooX     ... ",
"       XX   XX            ....             XooX .... XooX    .  ",
"   XXX  XX    X                      .    Xo  ........  oX      ",
"  XXX                            .. ...  Xo    ......... oX     ",
"    XX                 ..  .       ...   oX ...........  Xo     ",
"             X     XXX.....             Xo   ........     oX    ",
"          XXX       X   ..         XX XXXo     ....       oXXXX ",
"   XX  X   XXXX                     XXXXooX              XooXX  ",
"XX  XXXXXXXXXXXXXXX               XXXXooooXX            XXooooXX",
"OOOO++OO++++++++OOOO++++OOOOOOOOOOOOOOOO++OO++++@@@####@##@@++OO",
"++++++++++++++++++++++++++++++++++++++++++++++++++++@@@@@@++++++",
"                                         XXXX@$$$$$$$$@XXXXX    ",
"                        .. .              XX@$$$$$$%$$$@XXX ..  ",
" ...      ....        ...   ..   ...   .. X&$$$$$%%%%%$$&X   ...",
"  .     ..  .....      ...      ...   .. XX&$%$%%%%*%%%%&XX ... ",
"         ..   .....               ...    X@$%%%%******%%$&X     ",
"               ...                 .      @$%****=****%*%&XXX   ",
"    XXX                               XX  @%***======***%-oXXX  ",
"     XXX          XX    XXX          XXXX @**=**=======*O-oX    ",
"XX  XX       X     XX XXX          oooXooX-*=======*====O-ooXX  ",
"XXX      XXX  XX   X   XXX      XooXooooXX-*======**====O-oooXXX",
"XoooXX    X                XX  XXXXooooooo;-*=====*====*-;XoXXXX",
"oooooXXX      XXX       X   XXooXXXXooooooo;*=*========*:;XXXXXo",
"oooXXXXoooXXXXXX     XXXoXooooXXXooooXXooooo:**==>====*:;:oXXooo",
"oooooooooXXXooooXX  XXXXXooooXXoooooooXXXoooo:**=>====*;:ooooooo",
"OO++++++OOOOOO++++++++OO++++OOOOOOOO&&OO&&&oo::*=>>==*::oo&&&&OO",
"+++++++++++++++++++++++++++++++++++++++OOOOO&o:**=>>**o&&&&OO+++",
"XXXXXXXXX                                 XXXXoo**>>*oooXXXXXXXX",
"XXXXoXX  XXX                                XXXX**>=*XXXXXXXXXXX",
"XXooXXXXXoooX  X    XX      X              XX  XX*==XXX   XXXXXX",
"XXXXXXXXoooXXXX       X  XXX                  XXXX=*XX   XXXXXXX",
"XXXoooXXXXooXXXXX       XXX    X XX               **XXXXXXXXXXXX",
"XXoooXXXXXXXXXXXXXXX      XX  XXX                X*    XXXXXXXXX",
"XXXXooXXXXXooXXXXXXXXXX                         XXXX XXXXXXXXXXX",
"XXXXXXXXoooooooXXXooXXXXXX              XX        XXX XXXXXXoooX",
"XXXXXXXXXoooooXXXooXXoXXX  XX            XXXX    XX    XXXoooXXX",
"XXXXoXoooooooooXXXoooXXXXXXXXXX        XX XX         XXXXXXoooXX",
"oooXXooooooooooooooooooXXXXXooXX                 XXXXXXooXXXXXoX",
"ooooooooooooooooooooooooooXXXoooXXXX      XX  XXXXXXXoooXXXXoooo",
"oooooooooooooooooooooooooXXoooooooXXXoooXXXoooooXXXXXXoooooooooo",
"oooooooooooooooooooooooooooooooooooooooooXXXoooooooooooooooooooo",
"OOOO++O@@@#@@####@@@##@@++OOOO++OOOOOOOOOOOOOOOOOOOOOOOOOOOOOOOO",
"+++++++++++@@@@@@@@@@+++++++++++++++++++++++++++++++++++++++++++",
"::ooo----@$$$$$$$$@---oooooooooooo::::;::oo:::oooooooooooooooooo",
";::ooo--@$$$%$$$$%$@-oooooooooooo:::;;;;::oo::::oooooooooooooo:;",
";;;:::-&$$%%%%$%%%%$&-oooooooo::;;;::;;;;;::;;;;;;::oooooooo::;;",
";;:::::&$%**%%%%**%%&-ooooooo::;;;;;;;;;;;;;;;;;;;;:::oooo:::;;;",
";;;;;:@$$**==*%*==*%+&ooo::;;;;;;;;;;;;;;;;;;;;;;;;;;;::;;;;;;;;",
";;;;;;@$%*====**===*+&o::;;;;::;;::;;;;:::;;;;;;::;;;;;;;;:;;;;;",
";;;;;;@$**====*=*==*+-::;;;:::;;;;::;;:::;;;;;:::;;:;;;;::;;;;;;",
";;;;;;@%*===*===*>==O-:::;;;;;;;;;;;;;;;::::;;;::::;;;;;;;;;;;;;",
";;;;;;-**==**===>>==O-:;;;;;;;;;;;;;;;;;;:::::;;;;;;;;;;;::;;:;;",
";;;::;-***==*===>>>=O-;;;;;;;;;;::::;;;:::::::::;;;;;;;;:::::;;;",
";:::::;-**====*>>=>*-::::;;::--::::;;::;;::::::;;:::;;;;;;::::::",
":--:;;;;***==**>>=**:;;::::-::---:::::::;;:::::::::;;::;;;;:--::",
"--:::::;*;***o*=>=*;;::::-------::----::::::--::;;:::;:::::::---",
"----:::::;**:o*==*;;::---------------:--::---::::;;:::::::------",
"OOOOO&&--::*;::*=::---&&OOOOOOOOOOOOOOOOOOOOOOOOOOOOOOOOOOOOOOOO",
"++O+OOO&&-::::::=-&&&OO+++OOOOOOOOO++++++++OO+++++OOOOOO+++++++O"
};
