/* XPM */
static char *result[] = {
/* columns rows colors chars-per-pixel */
"64 64 11 1 ",
"  c #FBDC75",
". c #F7CE46",
"X c #D9A453",
"o c #C88644",
"O c #A06A34",
"+ c #7C512B",
"@ c #E4C474",
"# c #BC986D",
"$ c #C8A671",
"% c #A28166",
"& c #6F533A",
/* pixels */
"          ......                         .............          ",
"           ......                       ...............         ",
"         ..........                    ....... ..........       ",
"       ...............               ....   .    ..........     ",
"     .........  .........         ......   ...  .............   ",
"  ..........   ............   ........... ..................... ",
".............   ..... ..........................................",
"...................    .................XX..............XX......",
"........XX..XXX.....  ......XXX........XX...X.......XX....X.....",
".....XX.......XXX..  ........XXX..XX......XXXXXX..XXXXXX........",
"X.....XX...............................XXXXXXX...XX..XXXXX..XX..",
"XXXX....XX.....................XX...XXXXooXXooX....XXXXooooXXXXX",
"XXX..XXXX..XXX........XXX...XXX..XX..XXXXoooXXXXXXoooXXXXoooooXX",
"XXXXXXXXXX..XXXX.....XXX...XXooX..XXXXoooooXXXXXooooXXXXoooooXXX",
"OOOOOO++++++++OO++++OOOOOOOOOO++++++++OOOOOOOOOOOOOO++OOOO++++++",
"++++++++++++++++++++++++++++++++++++++++++++++++++++++++++++++++",
".................  .............................................",
"...........  ..      ...........................................",
".........   ..   ..    .........................................",
"..........   .....      ........................................",
"....XX..............  ..............XXX.....................XX..",
"...X...................XXX........XXXX.....XXX......X...........",
"........XXX.............X......XXXX.......XXX.....XX.....XXX....",
"..........XX..................XXX.........................XXX...",
"XX...........XX....XX..XXXX.....XX.......XX...X.XXX......XX...XX",
"X..XX.......XX..........XXXX..........XXXX..XXoooX..........XXXX",
"XXXXooX.XXX..........XXX...XXX.....XXXXXXXXXXoooXXXX.....XX..ooX",
"oooooXXXXX..........XXX...XXX...XX..XXoooXXXXXXXXXX.XX..XooXXXoo",
"oooooooooXXXXXXXXX....XXXXX..XXXXXXXoXXooooXXXooXXooXXXXooXXoooo",
"ooooooooooooXXXXXXXXXXXXXXXXXXXXXXXXXoooooXXXXXoooXXXXXXXXoooooo",
"+++OOOO+++OOOO++OOOOOOOOOO+++++++++OOOO+++++OOOOOOOOOOOO+++OOO++",
"++++++++++++++++++++++++++++++++++++++++++++++++OO++++++++++++++",
"XXXooXXXXXXoooXXXXXXXXXXXXXXXXXXXXXXXXXXX@@@@@@@@XXXXXXXXXXXXXXX",
"XooXXX@@@XooXXXXXXXXXXXXXXXXXXXXXXXXX@@@@@@@@@@@@@@@X@@XXXXXXXXX",
"XXoo@@@@XXXXXX@@@XXXXXooXXXXXXooXXX@@@@@@@@@@@@@@@@@@@@@@XXXXXXX",
"XXXXX@@XXXXX@@@@@@@XXXXoooXXXoXXX@@@@XX@@@@@@@@XX@@@@@@@XXXXXXXX",
"XXXXXX@@XXXXX@@@@@XXXXXXXXXXXXXXXX@XXX@@@@@@XX@@XXXX@@XXXXXXXXXX",
"XXXXXXXXXXXX@@@XXXXXXXXXXXoooXXXXXXXXXXX@@XXXXXXXXXXXXXXXXXXoooX",
"XXXooXXXXXXXXXXXXXXXXXXXXoooXXXooooXXXXXXXXXXXXXooXXXX@@XXXXXooo",
"XXXXooXXXXXXXXXXXXXXXoooXXXooXXXXooooXXXXXXXXoXXXooX@@@XXXXoXXXX",
"XXXXXXXXXXXooXooXXXXXXoooXXXXXXXXXXXXXXXXXXXoooXXXXXX@@@XXXXooXX",
"XXXXXXXXXXXXXooXXXXXoooooooooXXXoooXXXXXXXXXXXXXXXX@@XXXXXXXXXXX",
"XXooXoooXXXXXXXXXXoooooooooooooXXooooXXXoXXXXoooXXXXooXXooXXXooo",
"oooXXXXooXXXXXooXXXoooooooooooooooooXXooXXXXooooooXXXXoooXXXoooo",
"oooooooXXXXooooooooooooooooooooooooooooXXXoooooooXXooooooooooooo",
"oooooooooooooooooooooooooooooooooooooooooooooooooooooooooooooooo",
"+++++OOOOOO++++++++++++++OOOOOOOOOOO+++++++++OOOO++++++O++OO++++",
"++++++++++++++++++++++++++++++++++++++++++++++++++++++++++++++++",
"#$$##oooooooooooooooooooooooo###$$$$$##ooooo##$$$$$$$##oooooooo#",
"##$$$#oooooooooooooooooooooo##$$$$$$$$###oo##$$$$$$$$$$#oooooo##",
"$$###$##oooooooooooooooo#######$$$$$$$$####$$$$$$$$$$$####ooo##$",
"$###$$$$##oo##ooooooo###$$##$$$$$$$$$$$$$$$$$$$$$$$$$$$$$####$$$",
"$$$##$$#########oo####$$$$$$$$$$$$$$$$$$$$$$$$$$$$$$$$$$$$$$$$$$",
"$$$$$$$$$$##$$####$$###$$$$$$$$$$$$$$$$$$$$$$$$$$$$$$$$$$$$$$$$$",
"$$$$$$$$$$$##$$$$##$$$$$$$$$$$$$$$$$$$####$$$$$$$$$$##$$$$$$$$$$",
"$$$$$$$$$$$$$$$$$$$$$$$$$$$$$$$$$$$$$$$####$$$$$$$###$$$$$$$$$$$",
"$$$$$$$$$$####$$$$$$$$$$$$$$$$$###$$$####$$$$###$$$###$$$$$$$###",
"#$##$$$$########$$###$$#$$$$$$$$####%%##$$#####$$$$$$$$$$$######",
"###$$###%%%%#####$$####$$#$$$$$$$#%%%########$$$$$$$#####$$#####",
"#########%%%%%######%%######$$$$###%%%%#######$$###$$######$$###",
"#######%%%%%%##%%####%%%###$$$#######%%%%%##$$##################",
"######%%%%%%%%%%####%%%#############%%%%%#######################",
"&OOOO&&&&&&&&&&&&&&O&&OO&OOOOOOO&&&&OOOO&&&&&&&&&&&&&&OOOOOOOOO&",
"&&&&&&&&&&&&&&&&&&&&&&&&&&&&&&&&&&&&&&&&&&&&&&&&&&&&&&&&&&&&&&&&"
};
