/* XPM */
static char *result[] = {
/* columns rows colors chars-per-pixel */
"64 64 79 1 ",
"  c #060606",
". c #080707",
"X c #0C0907",
"o c #070708",
"O c #0D0908",
"+ c #130B07",
"@ c #130D09",
"# c #1A0E0B",
"$ c #17100A",
"% c #1C130C",
"& c #22140C",
"* c #2C160D",
"= c #231A0F",
"- c #2C1E12",
"; c #341B11",
": c #3B1E13",
"> c #322314",
", c #3D2014",
"< c #3B2916",
"1 c #422214",
"2 c #422E18",
"3 c #4C2818",
"4 c #562C1A",
"5 c #5A2E1B",
"6 c #4C341C",
"7 c #50371E",
"8 c #5E311D",
"9 c #543A1F",
"0 c #64341E",
"q c #573C20",
"w c #593D20",
"e c #6A3720",
"r c #773E25",
"t c #5D4122",
"y c #624423",
"u c #674825",
"i c #6C4B26",
"p c #6F4E28",
"a c #704D27",
"s c #714F29",
"d c #755229",
"f c #7B562B",
"g c #7F592C",
"h c #854426",
"j c #8A4627",
"k c #85472A",
"l c #8F4929",
"z c #944C2B",
"x c #9B4F2B",
"c c #825A2C",
"v c #96502F",
"b c #9E512C",
"n c #8E4F31",
"m c #995A3D",
"M c #A1522D",
"N c #A15631",
"B c #A35835",
"V c #9D6041",
"C c #A96443",
"Z c #A7694A",
"A c #AC6C4E",
"S c #AA6E51",
"D c #AD7052",
"F c #B07355",
"G c #B47A5D",
"H c #BE8A72",
"J c #C3937B",
"K c #C59A83",
"L c #C79C88",
"P c #CCA694",
"I c #CDAA98",
"U c #D5B5A6",
"Y c #D9BCAF",
"T c #DABEB1",
"R c #DCC2B6",
"E c #E3CFC7",
"W c #E3D1C7",
"Q c #E4D1C9",
"! c None",
/* pixels */
"!!!!!!!!!!!!!!!!!!!!!!!!!!!!!!!!!!!!!!!!!!!!!!!!!!!!!!!!!!!!!!!!",
"!!!!!!!!!!!!!!!!!!!!!!!!!!!!!!!!!!!!!!!!!!!!!!!!!!!!!!!!!!!!!!!!",
"!!!!!!!!!!!!!!!!!!!!!!!!!!!!!!!!!!!!!!!!!!!!!!!!!!!!!!!!!!!!!!!!",
"!!!!!!!!!!!!!!!!!!!!!!!!!!!!!!!!!!!!!!!!!!!!!!!!!!!!!!!!!!!!!!!!",
"!!!!!!!!!!!!!!!!!!!!!!!!!!!!!!!!!!!!!!!!!!!!!!!!!!!!!!!!!!!!!!!!",
"!!!!!!!!!!!!!!!!!!!!!!!!!!!!!!!!!!!!!!!!!!!!!!!!!!!!!!!!!!!!!!!!",
"!!!!!!!!!!!!!!!!!!!!!!!!!!!!!!!!!!!!!!!!!!!!!!!!!!!!!!!!!!!!!!!!",
"!!!!!!!!!!!!!!!!!!!!!!!!!!!!!!!!!!!!!!!!!!!!!!!!!!!!!!!!!!!!!!!!",
"!!!!!!!!!!!!!!!!!!!!!!!!!!!!!!!!!!!!!!!!!!!!!!!!!!!!!!!!!!!!!!!!",
"!!!!!!!!!!!!!!!!!!!!!!!!!!!!!!!!!!!!!!!!!!!!!!!!!!!!!!!!!!!!!!!!",
"!!!!!!!!!!!!!!!!!!!!!!!!!!!!!!!!!!!!!!!!!!!!!!!!!!!!!!!!!!!!!!!!",
"!!!!!!!!!!!!!!!!!!!!!!!!!!!!!!!!!!!!!!!!!!!!!!!!!!!!!!!!!!!!!!!!",
"!!!!!!!!!!!!!!!!!!!!!!!!!!!!!!!!!!!!!!!!!!!!!!!!!!!!!!!!!!!!!!!!",
"!!!!!!!!!!!!!!!!!!!!!!!!!!!!!!!!!!!!!!!!!!!!!!!!!!!!!!!!!!!!!!!!",
"!!!!!!!!!!!!!!!!!!!!!!!!!!!!!!OOO !!!!!!!!!!!!!!!!!!!!!!!!!!!!!!",
"!!!!!!!!!!!!!!!!!!!!!!!!!!!!O-qyt<@o!!!!!!!!!!!!!!!!!!!!!!!!!!!!",
"!!!!!!!!!!!!!!!!!!!!!!!!!!!O6gfgcgt%o!!!!!!!!!!!!!!!!!!!!!!!!!!!",
"!!!!!!!!!!!!!!!!!!!!!!!!!!O6cc7qcssy%o!!!!!!!!!!!!!!!!!!!!!!!!!!",
"!!!!!!!!!!!!!!!!!!!!!!!!!O6ccgffcttgy%o!!!.%$!!!!!!!!!!!!!!!!!!!",
"!!!!!!!!!!!!!!!!!!!!!!!!!$scccccggggft%o!X>t<.!!!!!!!!!!!!!!!!!!",
"!!!!!!!!!!!!!!!!!!!!!!!!! -dc9iccgcu6gt% =t<$o!!!!!!!!!!!!!!!!!!",
"!!!!!!!!!!!!!!!!!!!!!!!!!+&-duacswggfcgt%%-o!!!!!!!!!!!!!!!!!!!!",
"!!!!!!!!!!!!!!!!!!!!!!!!X5z:;dccptcccdgct% !!!!!!!!!!!!!!!!!!!!!",
"!!!!!!!!!!!!!!!!!!!!!!!O5SJv:-dccgfcg2pcgt% !!!!!!!!!!!!!!!!!!!!",
"!!!!!!!!!!!!!!!!!!!!!!O4NYPMz:-dcp<gcfggcct% !!!!!!!!!!!!!!!!!!!",
"!!!!!!!!!!!!!!!!!!!!!+5ZADBMMz:-dgdgccc9yccy% !!!!!!!!!!!!!!!!!!",
"!!!!!!!!!!!!!!!!!!!!X4SEJMMMMMz:-dcduccadciat%o!!!!!!!!!!!!!!!!!",
"!!!!!!!!!!!!!!!!!!!.1ZEINMMMMMMz,-di7ccccc9ycy%o!!!!!!!!!!!!!!!!",
"!!!!!!!!!!!!!!!!!!!&nTUNMMMMMMMMz:-dcctpccccfdt$!!!!!!!!!!!!!!!!",
"!!!!!!!!!!!!!!!!!! 4HQCMMMMMMMMMMz:-dcwifyfct6f2.!!!!!!!!!!!!!!!",
"!!!!!!!!!!!!!!!!!!@kRLxMMMMMMMMMMMv:-dccd6fcgggt$!!!!!!!!!!!!!!!",
"!!!!!!!!!!!!!!!!!!&VQFMMMMMMMMMMMMMz,-dccccccddu%!!!!!!!!!!!!!!!",
"!!!!!!!!!!!!!!!!!!*SECMMMMMMMMMMMMMMz:-dcgdcc6wy$!!!!!!!!!!!!!!!",
"!!!!!!!!!!!!!!!!!!*AECMMMMMMMMMMMMMMMz,-dd2dcff6X!!!!!!!!!!!!!!!",
"!!!!!!!!!!!!!!!!!!#mEGMMMMMMMMMMMMbMMMl:-ddgccu&!!!!!!!!!!!!!!!!",
"!!!!!!!!!!!!!!!!!!XrUKxMMMMMMMMMMMMMMbMz:-dccp-.!!!!!!!!!!!!!!!!",
"!!!!!!!!!!!!!!!!!! 1CCMMMMMMMMMMMMMMMMMMz;-ds-o!!!!!!!!!!!!!!!!!",
"!!!!!!!!!!!!!!!!!!!#jMMMMMMMMMMMMMMMMMMMz: ==.!!!!!!!!!!!!!!!!!!",
"!!!!!!!!!!!!!!!!!!!.eMxMMMMMMMMMMMMMMMMv:.!! !!!!!!!!!!!!!!!!!!!",
"!!!!!!!!!!!!!!!!!!!!1MMMMMMMMMMMbMMMMMz,o!!!!!!!!!!!!!!!!!!!!!!!",
"!!!!!!!!!!!!!!!!!!!!*vMMMMMMMMMMMMMMMz,.!!!!!!!!!!!!!!!!!!!!!!!!",
"!!!!!!!!!!!!!!!!!!!!*zMMMMMMMMMMMMMMz,.!!!!!!!!!!!!!!!!!!!!!!!!!",
"!!!!!!!!!!!!!!!!!!!!+380hxMMMMMMMMMj;.!!!!!!!!!!!!!!!!!!!!!!!!!!",
"!!!!!!!!!!!!!!!!!!!!   X@*0zMNMMbz8% !!!!!!!!!!!!!!!!!!!!!!!!!!!",
"!!!!!!!!!!!!!!!!!!!!!!!!!!.%1457,&.!!!!!!!!!!!!!!!!!!!!!!!!!!!!!",
"!!!!!!!!!!!!!!!!!!!!!!!!!!!!! ..!!!!!!!!!!!!!!!!!!!!!!!!!!!!!!!!",
"!!!!!!!!!!!!!!!!!!!!!!!!!!!!!!!!!!!!!!!!!!!!!!!!!!!!!!!!!!!!!!!!",
"!!!!!!!!!!!!!!!!!!!!!!!!!!!!!!!!!!!!!!!!!!!!!!!!!!!!!!!!!!!!!!!!",
"!!!!!!!!!!!!!!!!!!!!!!!!!!!!!!!!!!!!!!!!!!!!!!!!!!!!!!!!!!!!!!!!",
"!!!!!!!!!!!!!!!!!!!!!!!!!!!!!!!!!!!!!!!!!!!!!!!!!!!!!!!!!!!!!!!!",
"!!!!!!!!!!!!!!!!!!!!!!!!!!!!!!!!!!!!!!!!!!!!!!!!!!!!!!!!!!!!!!!!",
"!!!!!!!!!!!!!!!!!!!!!!!!!!!!!!!!!!!!!!!!!!!!!!!!!!!!!!!!!!!!!!!!",
"!!!!!!!!!!!!!!!!!!!!!!!!!!!!!!!!!!!!!!!!!!!!!!!!!!!!!!!!!!!!!!!!",
"!!!!!!!!!!!!!!!!!!!!!!!!!!!!!!!!!!!!!!!!!!!!!!!!!!!!!!!!!!!!!!!!",
"!!!!!!!!!!!!!!!!!!!!!!!!!!!!!!!!!!!!!!!!!!!!!!!!!!!!!!!!!!!!!!!!",
"!!!!!!!!!!!!!!!!!!!!!!!!!!!!!!!!!!!!!!!!!!!!!!!!!!!!!!!!!!!!!!!!",
"!!!!!!!!!!!!!!!!!!!!!!!!!!!!!!!!!!!!!!!!!!!!!!!!!!!!!!!!!!!!!!!!",
"!!!!!!!!!!!!!!!!!!!!!!!!!!!!!!!!!!!!!!!!!!!!!!!!!!!!!!!!!!!!!!!!",
"!!!!!!!!!!!!!!!!!!!!!!!!!!!!!!!!!!!!!!!!!!!!!!!!!!!!!!!!!!!!!!!!",
"!!!!!!!!!!!!!!!!!!!!!!!!!!!!!!!!!!!!!!!!!!!!!!!!!!!!!!!!!!!!!!!!",
"!!!!!!!!!!!!!!!!!!!!!!!!!!!!!!!!!!!!!!!!!!!!!!!!!!!!!!!!!!!!!!!!",
"!!!!!!!!!!!!!!!!!!!!!!!!!!!!!!!!!!!!!!!!!!!!!!!!!!!!!!!!!!!!!!!!",
"!!!!!!!!!!!!!!!!!!!!!!!!!!!!!!!!!!!!!!!!!!!!!!!!!!!!!!!!!!!!!!!!",
"!!!!!!!!!!!!!!!!!!!!!!!!!!!!!!!!!!!!!!!!!!!!!!!!!!!!!!!!!!!!!!!!"
};
