/* XPM */
static char *a052646e6f174fedcf29094f37218765r7cYjfCcRBHtGUGd[] = {
/* columns rows colors chars-per-pixel */
"64 64 131 2 ",
"   c #2D952E",
".  c #2D9A2D",
"X  c #319D2E",
"o  c #2F8635",
"O  c #2E8C33",
"+  c #318636",
"@  c #328B36",
"#  c #308238",
"$  c #358C38",
"%  c #3A8D39",
"&  c #2E9230",
"*  c #2F9A30",
"=  c #329333",
"-  c #399436",
";  c #349C32",
":  c #399B35",
">  c #349439",
",  c #3C953A",
"<  c #3D9B39",
"1  c #32A22E",
"2  c #38A72F",
"3  c #34A82D",
"4  c #39AC2F",
"5  c #3CB22F",
"6  c #35A231",
"7  c #3AA432",
"8  c #36A933",
"9  c #3CAB33",
"0  c #37A43A",
"q  c #3DA53B",
"w  c #37A838",
"e  c #3EAA39",
"r  c #3DB031",
"t  c #42953C",
"y  c #419E3A",
"u  c #459B3D",
"i  c #459C3D",
"p  c #439C3C",
"a  c #42A736",
"s  c #42A736",
"d  c #43AB34",
"f  c #43A837",
"g  c #45AA35",
"h  c #45AA37",
"j  c #45AB37",
"k  c #47AB36",
"l  c #47AB37",
"z  c #40AD34",
"x  c #42AE34",
"c  c #46AC37",
"v  c #43AB35",
"b  c #4AAE37",
"n  c #49AE37",
"m  c #43A039",
"M  c #42A43B",
"N  c #43A33A",
"B  c #48A738",
"V  c #49A53B",
"C  c #48A43B",
"Z  c #41A83A",
"A  c #44AB3B",
"S  c #42AF39",
"D  c #45AC3A",
"F  c #48AC39",
"G  c #4BAE38",
"H  c #49AE3A",
"J  c #4CAF38",
"K  c #4BAC3B",
"L  c #51AC3C",
"P  c #50AE3C",
"I  c #50AB3C",
"U  c #43B733",
"Y  c #42B134",
"T  c #45B134",
"R  c #44B135",
"E  c #47B236",
"W  c #46B537",
"Q  c #44B335",
"!  c #48B037",
"~  c #49B336",
"^  c #49B337",
"/  c #4BB337",
"(  c #49B437",
")  c #4BB737",
"_  c #49B337",
"`  c #46B835",
"'  c #49BA37",
"]  c #45B03A",
"[  c #46B63A",
"{  c #47B33A",
"}  c #48B23A",
"|  c #49B23A",
" . c #4AB23A",
".. c #4BB439",
"X. c #4BB03C",
"o. c #4AB13C",
"O. c #4EB43C",
"+. c #4EB73D",
"@. c #4CB43A",
"#. c #4CB938",
"$. c #4CB93B",
"%. c #4FBC3A",
"&. c #4DBA3A",
"*. c #50B339",
"=. c #50B439",
"-. c #52B53B",
";. c #53B33C",
":. c #51B53A",
">. c #55BC3B",
",. c #57BC3B",
"<. c #55B83C",
"1. c #54BC3A",
"2. c #5CBB3D",
"3. c #59BD3C",
"4. c #5ABD3C",
"5. c #5ABE3C",
"6. c #5ABE3D",
"7. c #5ABF3D",
"8. c #5ABD3C",
"9. c #60BF3E",
"0. c #60BF3E",
"q. c #55C03B",
"w. c #58C03C",
"e. c #5DC13D",
"r. c #5BC13D",
"t. c #61C03E",
"y. c #61C33F",
"u. c #51AE41",
"i. c #65C340",
"p. c #69C741",
"a. c #6ECA43",
/* pixels */
". . . . ; 7 p.9 X . . . . . X 6 X 9 6   . X 9 X . . . . =.e.X . X X 2.>.1 . . . . . . ; X . . . . . . . . . 7 & . . . . . ; 7 a.",
". . . X 9.~ ~ } w ;   . . 6 =.r.9 1 : = . X U z &   . g +.W X . b 4.R ..S 6   . . X g 4.( X . 1 1 1 . . . . ; O . . . . X t.R ~ ",
"1 . . . a } e - ; = = X X X.D , = . ~ ( X . 1 ; + O . q w @ + O ; F ] < - ; @ ; . e X.y $   . 1 . . . . . . . . 1 1 . . . f } e ",
". . . . O @ 6 - = . R m ; 6 . &   . 9 [ 7 . . 6 9   . . . & =   & + ; 6 = . 4 F - ; ;   & . . 1 . . . . . 1 . . . . . .   O @ 6 ",
"1 1 X g =.e 6 <.~ . .   J >.X . . . . 8 0 + O X ; y 9 . . 9 9 : *.~ 6 c 4.6 . . : 4.f . . . 1 . . . . . 1 . 1 . . 1 1 X g =.7 6 ",
"X . . - u e w Z - O . g +.W X ; X . . . . ; 6 . . z %.7 . 2 X + t M w e < +   6 +.$.7 X X X . X 6   . . . . . . . 1 . . - i w w ",
". 1 ; &   . . 6 L F 6 q w y ;.r.Y 1 9 ; . 9 9 O . 6 9 w =   .   &   . . V L 7 6 e 0 V 4.$.9 . . ; O . . . 1 . . . . 1 ; &   . . ",
"X 2 = & X . . = t M 8 ; X K D , + O 1 = ; . .   . . 1 6 + O   . . . . . - i w 6 . M H m $ + X . . . . . 1 . . . . X 2 =   X . . ",
"4.c . 6 7 7     &   . 6 / ..; & &   X X 2.R X . . . . . . ; X . . . . .     . 6 6 & .   & ; z   . . 7 6 . . . . 6 4.z . 6 7 7   ",
"$.9 . X @ ; - ; . . . =.w.1.' 7 . . 1.:.R ..9 ;   . . ; / r.R . . 1 1 . . . . X ; & . . . . 6 = . . 9 ` ;   . 6 X.$.9 . X @ ; - ",
"; + o & 6 =.y.>.7 . . 7 ; ; ' 9   . 7 } S < ; = = 6 . D D < $ . . X 1 . . . . . . . 1 1 . . 6 1.7 . 1 2 = +   ; e ; + o   6 =.e.",
"  = & . ..1.f D e . .   O O 6 = O . O + ; ; = . 9 B = ; X     . . . . . . . . 1 . . . . . . 1 ..9 X . . 9 ;   . .   = & X ..1.f ",
"1 r 6   ; 6 + + = g =.7 . ; 6 X . 7 =.z 1 / 1.X .   f 4.6 . . . 1 . . . . . 1 1 . . 1 1 1 . . 1 8 > o & 1 = l X . 1 r ;   6 6 + ",
"1 2 = = 7 9 9 1 f r.1.$.R r.y.>.7 = u q w Z , O . e +.) 1 ; X X . 1 ;   . . . . . . . . 1 . . X . ; : X . X 1.Y . 1 2 = ; 7 9 9 ",
"&   . 6 - e + @ 6 6 = R ` f e D e   & . . X K J 6 0 e < K r.W 7 . 1 = & . 1 . . . . . . 7 = X 9   2 5 =   . 9 9 6 &   . 6 - e + ",
"o O . .   . &   . O o ; 6 O o + = . . . .   , N w 6 . V H < $ @ . . . . . . 1 . . . . X 6 @ X 6 O . .     . . 6 = o & . .   . & ",
". . . . . . . . . . . 7 ; . . . . 1 7 7 ;   &   . ; b =.7   & ; 9   . . 7 X . . . . f 4.6 . 7 7 6   . . . . 7 =.c . . . . . . . ",
"W 6 . . 1 1 1 . . . . 1 @ . . . . X = ; - ; . . . c r.1.$.9 . . ; = . . r W =   . e +.) 1 . ; = ; - X . . X 4.w.1.W 1 . . 1 1 1 ",
"' 7   . 1 . 1 . . . . . . 1 1 1 . . X b e.r.9 . . 6 6 ; W Q = . f :.1 . 1 1 @ O . 0 e - + O . 7 1.y...X . X 7 ; e ' 6   . 1 . 1 ",
"7 = & . 1 . . . . . 1 . . . . . . . c >.c f c . . . O o ; ; O   7 ) w . . X z   . . .   = & ; 1...e D 6 . .   o = 7 = & . 1 . . ",
"6 X . X . 1 . . . . . 1 . . 1 1 1 . ; 6 = + $ a =.f . X 6 ; . . . 2 w @ o . ; - g . . 7 r X . 6 ; + + ; / / X X 6 6 X . 1 . 1 . ",
"y.$.1 . . 7   . . . . . . . 1 . . . 7 9 9 7 7 r.w.%.Y >.y.r.9 . . . . ; : . . 7 1.9 . 1 1 @ ; 9 9 9 1 ..r.1.( ~ e.y...X . . 6   ",
"e D 7 . . 1 O . . . 1 . . . . X 6 ; - e = @ X 7 = e ' z e f c . 7 7   4 4 =   X 9 w ; &   . ; : 0 + = 7 ; ; ' W a e D 6 . . ; O ",
"+ $ = . . . X . . 1 . . . . . . ; =   .   & . & o = 6 @ o $ @ . X = & . .   . . . 6 = o   . X   . &   . O + 6 ; o + $ & . . . X ",
"4.c . . X 6 t.9 . . . . . . . ; . 9 6   . X 7 X . . . . ~ >.X . . . . . . . . X 6   . . . X z   . . 7 6 . . . . 6 4.z . . X 7 i.",
"$.9 . X 9.~ ( } w ;   . . 6 =.r.9 1 : = . X U z &   . g +.W X . . 1 1 . . . . X ; & . . . . 6 = . . 9 ` ;   . 6 X.$.9 . X t.R ( ",
"; + o & f } e - ; = = X X X.D , = . ~ ~ X . 1 ; + O . q w = + O . 1 1 . . . . . . . 1 1 . . 6 :.7 . 1 2 = +   ; e ; + o = g } e ",
"  = &   O @ 6 - = . R m ; ; . &   . 9 [ 7 . . 6 9   . . . & =   . . . . . . . 1 . . . . . . 1 ..9 X . . 9 ;   . .   = &   O @ 6 ",
"1 r 6 g ..9 6 <.~ . .   J 1.X . . . X 8 0 + O X ; y 7 . . 9 9 X 1 . . . . . 1 1 . . 1 1 1 . . 1 8 > o & 1 = g X . 1 r 6 g =.7 6 ",
"1 2 = % i e w Z - O . g +.W X ; X . . . . ; ; . . z %.7 . 2 X O . 1 ;   . . . . . . . . 1 . . X . ; ; X . X 1.Y . 1 2 = % i w w ",
"&   .   & . . 6 I D 6 q w < ;.r.Y 1 9 ; . 9 9 O . 6 9 w =   . . . 1 = & . 1 . . . . . . 7 = X 9   2 5 =   . 9 9 6 &   .   & . . ",
"o O . . . . X = t M 8 ; ; K D , + = 2 =   . .   . . 1 6 + $ . . . . X X . . 1 . . . . . 1 @ . ; O . .     . . 8 = o & . . . . X ",
". . . . X 6 t.7 &   . . . . X = = 7 6   . X 7 X . . . . ~ >.X . X X <.=.1 . . . . . . X X . . . . . . . . . 6   . . . . . X 7 i.",
". . . X 9.~ ....w X   . . 6 =.r.9 1 : = . X U z &   . g +.W X . b 4.R ..S 6   . . X g 4.' X . 1 1 1 . . . . ; @ . . . . X t.R ( ",
"1 . . . f } e - ; = = X X X.D , = . ~ ~ X . 1 ; + O . q w = o O 6 } ] < ; ; @ ; . a X.m -   . 1 . . . . . . . . 1 1 . . . g } e ",
". . .   O @ 6 - = . R m ; ; . &   . 9 [ 7 . . 6 9   . . . & =   & + ; 6 =   2 F - ; ;   & . . 1 . . . . . 1 . . . . . .   O @ 6 ",
"1 1 X g / 7 6 <.~ . .   F 1.X . . . X 8 0 + O X ; y 7 . . 9 9 : / c 6 g 4.6 . . : 4.f . . . 1 . . . . . 1 . 1 . . 1 1 X g / 7 1 ",
"1 1 . - i e w Z - O . g +.W X X X . . . * ; ; . . z %.7 . 2 X + t M w e y +   6 X.$.7 X X X . X 6   . . . . . . . 1 1 . - i e w ",
". 1 ; & & . . 6 I D 6 q w < ;.r.Y 1 9 ; . 9 9 O . 6 9 w ;   .   &   . . B J 7 6 e 0 V 4.$.9 . X ; O . . . 1 . . . . 1 ; & & . . ",
"X 2 = & . . . = t M 8 ; X K D , + & 1 = ; . .   . . 1 6 + o   . . . . . - i e 6 . M H m $ + X . . . . . 1 . . . . X 2 =   X . . ",
"4.c . 6 7 7     &   . ; / / ; & &   X X 2.c X . . . . . . X X . . . . . & & . 6 6 & .   & = z   . . 6 6 . . . . 6 4.f . 6 7 7   ",
"$.9 . X @ ; - ; . . . =.r.1.( 7 . . 1.=.~ ..9 ;   . . ; F r.R . . 1 1 . . . . X ; & . . . . 6 = . . 9 ` ;   . 6 X.$.9 . X @ ; - ",
"; + o & 6 =.y.>.7 . . 7 ; ; ' 9   . e } S < ; ; = X . D X.y = . . 1 1 . . . . . . . 1 1 . . 6 :.7 . 1 2 = +   ; e ; + o   6 =.e.",
"  = & . ..1.f D e . .   O + 6 ; O . O + ; ; = . 9 B = ; X & & . . . . . . . . 1 . . . . . . 1 ) 9 X . . 9 ;   . .   = & X ..1.f ",
"1 9 6   6 6 + + = g =.7 . ; 6 X . 7 *.f 1 / :.X .   a 4.6 . . . 1 1 . . . . 1 . . . 1 1 1 . . 1 8 > o & 1 = g X . 1 r ;   6 6 + ",
"1 3 = = 7 9 9 1 f r.w.$.Y r.y.>.7 = u Z w Z < O . 7 +.) 1 X X X . 1 ;   . . . . . . . . 1 . . . . ; ; ; . X 1.Y . 1 3 = = 7 9 9 ",
"&   . 6 - e @ = 6 6 ; R ` f f D f   & . . X K B 6 0 e < K r.W 7 . 1 = & . 1 . . . . . . 7 X X 9   2 5 =   . 9 9 6 &   . 6 : e + ",
"o O . .   . &   . O o ; 6 + o + = . . . .   , N w 6 . V H y $ @ . . . . . . 1 . . . . X 7 @ X 6 O . .     . . 6 = o & . .   . & ",
". . . . . . . . . . . 6 ; . . . . 1 7 7 ;   &   . ; c =.7 & & ; 9   . . 7 X . . . . f 4.6 . 7 7 6   . . . . 6 *.g . . . . . . . ",
"R 6 . . 1 1 1 . . . . 1 @   . . . X = ; - ; . . . c r.w.) 9 . X ; = . . Y W =   . 7 +.) 1 . ; = ; - X . . X 4.w.1.R 1 . . 1 1 1 ",
"' 7   . 1 . 1 . . . . . . 1 1 1 . . X b e.r.9 . . 6 6 ; W Q ; . f $.1 . 1 2 + O . 0 e - + O . 7 1.y.) X . X 7 ; e ' 6   . 1 . 1 ",
"7 = & . 1 . . . . . X . . . . . . . c w.c f c . . . O o ; ; O   7 ) w . . X z   . . .   = & ; >.$.f ] 6 . .   o = 7 = & . 1 . . ",
"; X . 1 . 1 . . . . 1 1 . . 1 1 1 . ; 7 @ + $ 7 =.f . X ; ; . . . 2 w > o . ; - f . . 7 9 X . 6 ; + + ; b / X . ; ; X . 1 . 1 . ",
"y...1 . . 6   . . . . . . . 1 . . . 6 9 9 7 7 r.w.1.Y >.y.r.9 . . . . = : . . 7 1.9 . 1 2 @ ; 9 9 9 X ..r.1.( ~ e.y...X . . 6   ",
"f D 7 . . 6 O . . . X . . . . X 6 ; - e = @ X 7 ; z ' z f f c . 7 7   9 4 =   X 9 w ;     . 6 : 7 + = 7 ; ; ' W f f ] 6 . . 6 O ",
"+ $ = . . . X . . 1 X . . . . X ; =   . & & . & o = 7 @ o $ @ . 1 = & . . & . . . 6 @ o   . .   . &   . O + 7 ; o + $ & . . . X ",
"4.c . . X 6 t.9 . . . . . . . X . 9 6   . X 7 X . . . . b 1.X . . . . . . . . X 6   . . . X 9   . . 6 6 . . . . 6 ,.f . . X 7 i.",
"$.9 . X 2.~ ....w X   . . 6 =.r.9 1 : = . X U z &   . g +.( X . . 1 1 . . . . X ; & . . . . 6 = . . 9 ` ;   . 6 / $.9 . X 9.R ..",
"; + o & g ..e < 6 = = X X X.D < = . ~ ~ X . 1 6 + O . q w = + O . 1 1 . . . . . . . 1 1 . . 6 :.7 . 1 2 = +   ; e ; + o = g ..e ",
"  & &   O @ 6 - = . R m ; ; . &   . z [ 7 . . 7 9   . . . & = & . 1 . . . . . 1 . . . . . . 1 ) 9 X . . 9 ;   . .   = &   O @ 6 ",
"1 9 6 f / 7 6 =.~ . . & F 1.X . . . X 8 0 + O X ; y 7 . . 9 9 X 1 1 . . . . 1 X . . 1 1 1 . . 1 8 > o & 1 = g X . 1 r 6 g / 7 1 ",
"1 3 = % i e w Z - O . g +.W X X X . . . * = ; . . z %.7 . 2 1 O . 1 ;   . . . . . . . X 1 . . . . ; - ; . X 1.Y . 1 3 = % i e w ",
"    .   & . . 6 K D 6 q w < *.>.Y 1 9 ; . 9 9 & . 6 9 w ;   . . . 1 = & . X . . . . . . 6 . X 9   2 5 =   . 9 9 6     . & & . * ",
"# O . . . . . = u V w ; ; u.H y + O 1 =   . . & . . 1 6 + o   . . . . . . . 1 . . . . . 1 @ X ; O . . &   . . 8 > # O . . . . . "
};
