/* XPM */
static char *result[] = {
/* columns rows colors chars-per-pixel */
"64 64 83 1 ",
"  c #1E1712",
". c #1F1813",
"X c #241B15",
"o c #2A1F17",
"O c #2E2116",
"+ c #2A2019",
"@ c #3B2716",
"# c #3C2E20",
"$ c #552F0D",
"% c #57310E",
"& c #58320E",
"* c #41301E",
"= c #573210",
"- c #5A3411",
"; c #5C3816",
": c #5E3719",
"> c #56381A",
", c #5D3A19",
"< c #633B13",
"1 c #693F15",
"2 c #643E1A",
"3 c #473421",
"4 c #503B26",
"5 c #563F28",
"6 c #6D4116",
"7 c #6F451B",
"8 c #724519",
"9 c #75491C",
"0 c #7F4F1E",
"q c #7F501E",
"w c #7C4E23",
"e c #7F5120",
"r c #745636",
"t c #804F1E",
"y c #81501F",
"u c #825322",
"i c #895622",
"p c #8D5A25",
"a c #845629",
"s c #85582A",
"d c #8C5C29",
"f c #915D27",
"g c #925E28",
"h c #966129",
"j c #9B652C",
"k c #9F682E",
"l c #9C6831",
"z c #A0692F",
"x c #A56D31",
"c c #A86E32",
"v c #AD7336",
"b c #AD773B",
"n c #B17637",
"m c #B27738",
"M c #B67A3A",
"N c #B97C3B",
"B c #9F7547",
"V c #B47C40",
"C c #BA7F40",
"Z c #BC8345",
"A c #B58550",
"S c #BB8A52",
"D c #C58A4A",
"F c #CA8E4D",
"G c #D4944F",
"H c #C38F55",
"J c #CF9351",
"K c #D59754",
"L c #D69955",
"P c #D99B57",
"I c #D59C5C",
"U c #DEA15F",
"Y c #E4A55E",
"T c #E7A760",
"R c #E7A860",
"E c #EDAC64",
"W c #F0AE65",
"Q c #EFB46E",
"! c #F3B167",
"~ c #F3B36A",
"^ c #F8B56B",
"/ c #F0B573",
"( c None",
/* pixels */
"(((((((((((((((((:((((((((a(((((((((((((((((((((((((((((((((((((",
"((((((((((((((((-=((((((((uu((((((((((((((((((((((((((((((((((((",
"((((((((((((((((-%((((((((0e((((((((((((((((((((((((((((((((((((",
"((((((((((((((==&&(((((Q~Dqe((((((((((((((((((((((((((((((((((((",
"((((((((((((((&%&&(((((~~F0e((((((((((((((((((((((((((((((((((((",
"((((((((((((a088870uaadP~D0u((((((((((((((((((((((((((((((((((((",
"(((((((((((u0000yy0000uL^Fte((((((((((((((((((((((((((((((((((((",
"(((((((((((u00000t0000yZLM0u((((((((((((((((((((((((((((((((((((",
"(((((((((((u00000000000uyyqy((((((((((((((((((((((((((((((((((((",
"(((((((((((u000000000000y0qy((((((((((((((((((((((((((((((((((((",
"(((((((((aue00wy00000000q00tua((((((((((suuuuuuuus((((((((((((((",
"(((((((((y000tyy00000000q00t0t((((((((((uqqqyqq0qu((((((((((((((",
"((((((((ay00y7>,0000000000000tu(((((((((eq00q0q0qu((((((((((((((",
"((((((a0q000y>XO9t0000t00t000twyu(((((qtq0000000qttqqya(((((((((",
"((((((lfpt00q,O@90t00q00q000000qu(((((y0000000t0000000a(((((((((",
"((((QQERFy00q099000000000t00t000u(((((y000000000t0q0qqqqa(((((((",
"((((~~!~Lyytttq00q000000000t0000u(((((y000000t000000t000u(((((((",
"((+#rrH~YDDf000q000000000000q000u(((aa00000t000000000000yaa(((((",
"((XXX B~~~Wj000000000t0000000000u((ut0000q000000000y0000qqq(((((",
"((XO45A^!!Wmjjjju0000q00t0q0000tu((u00000t00q0q000000000quu(((((",
"((X*LEE!!!!WEWEYpyqq0q0qt0000000u((u0q000000000000000000u(((((((",
"((O3U~!!!!!!~~~Yhyyyyq0t000000qtu((u000t0000000t0000t0yqu(((((((",
"((SHE!!!!!!!!!!EPLLLDy0000000000u((u00000q0t000y00tq0qa(((((((((",
"((~~!!!!!!!!!!!!!!!^Pu00q000t000u((a00t000000yty00000ta(((((((((",
"((~~/~~~W!!!!!!!!!!^Pyyqq000t000u((uq00q0000068euauaua((((((((((",
"((((((/~!!!!!!!!!!!!Puqq0q000q00u((a0000q00y9&-(((((((((((((((((",
"((((((/~~!!!!!!QRYYEJy0000t000wua((u0t0000008&&(((((((((((((((((",
"(((((((((~!!!!!Rlfffpq000000ttu((((u00000q6&-&&(((((((((((((((((",
"(((((((((~~!~!~Rpq000000q0q000(((((a0q000y1&&&&(((((((((((((((((",
"(((((((((((LGDMviq0q0000t00us((((say00t00q861&&,2(((((((((((((((",
"(((((((((((CNz00qqqq0000000y(((((ut00000ttty9&$%&-((((((((((((((",
"(((((((((((NNxipppyq0000000y(((((0q00000tttt9<<-%;((((((((((((((",
"(((((((((((CNMNNMMh00q0t0000ye(((u0000000000000<%&&-((((((((((((",
"(((((((((((NNNNNMNh000000t000q(((eq0000000qt00y<%&%=((((((((((((",
"(((((((((,<vNNNMhfuy0000000000(((((a00000000000891&&-;((((((((((",
"(((((((((&-zNNNMyt00t000000000(((((u000y00t00000y8%%%&:(((((((((",
"(((((((((,2jczzzyttt000000000yy((((u0000000q000008<<&&1(((((((((",
"((((((,&,((eyyyyyttt00000y0000yqqqqt00000t000000tyy9-&1tu(((((((",
"((((((2=2((ayyuyyyyyyy0t000000000000000t0000000tt000<&6tu(((((((",
"(((((((((auxnnnvMvnMxu00000000t000000q00000q0tq000q0090tquuuua((",
"(((((((((yyvNNNNNNNNvyyt000000000q000t00000000000000ttt000000w((",
"((((((((((smNNNNNNNNMjzy00000000000t00q0000tt000000tt00t00000u((",
"(((((((((((CNNNNNNNNNNNf000000000000000t000000000q0000000000wt((",
"(((((((((((NNNNNNNNNNNMf000000000000000000q000q0t000q0000000tu((",
"(((((((((((ZNNNNNNNNNNMf00000000t000q0q0t0t000t0000000q0000ttu((",
"(((((((((((NNNNNNNMNNNNfyy0t0t0q0q00000000tty0000000t0000000tt((",
"(((((((((((09hNNNNNNNNMccj0q0000000t000000hvkyy0000t00000000tw((",
"(((((((((((&$yNMNNNNNNNNNzt0000000000t0000jCvyty0q000000t000tu((",
"(((((((((((-&uNMNNNNNNNcxhyt000000t0000qttgxxghy00000q0000000w((",
"(((((((((-&&%uNNNNNNNNNfyy0t0y000000t000ttttpMNg0000000000000u((",
"(((((((((=&&&uNNNNNNNNmf00000000000q0000ttttiMNgyu00000000qqwu((",
"(((((((((=&&&uNNNNNNNNNp000t0000000000t00tttiNNmnjt0000000y(((((",
"(((((((((&&&%uMNNNNNNNNg00000000000000000t00iMNNNvtt00q0tyy(((((",
"((((((((,&&&%uNMNNcjzjky00000000y00000000000pMNczgt0t000yaa(((((",
"((((((,&&&&&&uNNNNh0yy00000000000000t0ttyy00iMNh00000qq0u(((((((",
"((((((,&&&&&&uNNNNh00t00000000000000ttttyyyyfvnf0000yyuua(((((((",
"((((((;&&&&&%yNNMNj0t00t0000000tt000000t00jNvyyy00qe((((((((((((",
"((((((<&&&&%%uNNNMht00000000000000000q00ytzNmyyyuqqe((((((((((((",
"((((((,&%&&&&<099000t00000000000q00tyy0yzcb(((((((((((((((((((((",
"((((((,&&&&&&&$%%$6000000t00y0q000000yyynN((((((((((((((((((((((",
"((((((,&&&&&&&&&<<8000ty0000tt0000t0000ybZ((((((((((((((((((((((",
"((((-=&&&&&&&&&-0t0000twq000yw00000000yy((((((((((((((((((((((((",
"((((====&======-0wttttttttttttttttytyyyy((((((((((((((((((((((((",
"(((((((((((((((((((((((((((((((((((((((((((((((((((((((((((((((("
};
