/* XPM */
static char *result[] = {
/* columns rows colors chars-per-pixel */
"64 64 85 1 ",
"  c #1C130C",
". c #20150E",
"X c #2B1C0F",
"o c #261A11",
"O c #37220F",
"+ c #3A2919",
"@ c #572E06",
"# c #582F07",
"$ c #572E09",
"% c #582F08",
"& c #5A3007",
"* c #57300A",
"= c #5B320B",
"- c #432F1B",
"; c #563514",
": c #5D3611",
"> c #5D3813",
", c #62360B",
"< c #65390C",
"1 c #6A3D0E",
"2 c #623A12",
"3 c #6D3E10",
"4 c #4D3721",
"5 c #523A22",
"6 c #6E4213",
"7 c #734413",
"8 c #784715",
"9 c #764817",
"0 c #7E4C17",
"q c #754818",
"w c #7D4C19",
"e c #6F5131",
"r c #745332",
"t c #804E17",
"y c #804E18",
"u c #83521C",
"i c #8A561D",
"p c #8D581F",
"a c #845522",
"s c #865823",
"d c #8D5A22",
"f c #925D22",
"g c #966024",
"h c #996225",
"j c #9D6629",
"k c #9E682C",
"l c #9A6831",
"z c #A36A2B",
"x c #A86F2E",
"c c #AB712F",
"v c #A76E30",
"b c #AC7332",
"n c #AF7638",
"m c #B17634",
"M c #B67A37",
"N c #B97C37",
"B c #B37A3B",
"V c #BA7D38",
"C c #9E7344",
"Z c #BB803C",
"A c #BD8342",
"S c #B4844E",
"D c #BA8951",
"F c #C48945",
"G c #C58B49",
"H c #C88C49",
"J c #CE924E",
"K c #D4954E",
"L c #C28E54",
"P c #D69953",
"I c #D99C55",
"U c #D49C5C",
"Y c #DEA25E",
"T c #E4A65E",
"R c #E7A85F",
"E c #E6A760",
"W c #E7A860",
"Q c #EDAD64",
"! c #F0AF65",
"~ c #EFB56E",
"^ c #F3B267",
"/ c #F3B36A",
"( c #F8B66B",
") c #F0B673",
"_ c None",
/* pixels */
"_____________________________________s________:_________________",
"____________________________________uu________#*________________",
"____________________________________0u________@*________________",
"____________________________________uyG/)_____@@%%______________",
"____________________________________w0H//_____@@@%______________",
"____________________________________uuH/Ydauu977779u____________",
"____________________________________utH(Ptyyyyyy0yytu___________",
"____________________________________utBIFuyyyyyyyyyyu___________",
"____________________________________yyuutyyyyyyyyyyyu___________",
"____________________________________uyt0yyyyyyyyyyyya___________",
"______________suuuuuuuus__________uuyyyyyyyyyyyyyyyyyau_________",
"______________uyu0uyu00u__________tutyyyyyyyyyy0uyyy00u_________",
"______________uyyyyyy0tu_________ayyyyyytyyyyyy0:;6uyyya________",
"_________ayyutyyyyyyyyytuu_____ut0tytyyyyyyytyyqX ;yyytt0a______",
"_________ayyttyyyyyyyyytyy_____utyyyyyyyyyyyyyy9OX>tyyyifl______",
"_______u0utyyyyyyyyyyyyyyy_____uyyyyyyyyyyyyyyyyq90tytuJEQ/)____",
"_______uttyyyyyyyyyyyyyyyu_____uyyyyyyyyyyyyyyyyyytt0tuI^^~/____",
"_____auuyyyyyytyy0yyyyyyyyuu___uyyyyyyyyyytyyyytyyy0fFHT^Lre+o__",
"_____0u00yyyyyyyyyyyyyyyyytta__uyy0yyyyyyyyyyytt0000jQ//^C   .__",
"_____uuutyyyyyyyyyyyyyyyyyyyu__uyytyyyyyyyyyyytujkkjB!^^(S;4X.__",
"_______utttyyyyyyyyyy0yyyyyyu__uyyyyyyyyyyyttttpTQ!Q!^^^^QQU+ __",
"_______uyutty0yyyyyyyyyyyyyyu__uyyyyyyytyytuuutgT^^^^^^^^^^E-o__",
"_________atyyyyyyyyyyyyy0yt0a__uyyyyyyttttuFPPPI!^^^^^^^^^^QLD__",
"_________ayyyyytyyyyyyyyyyyuu__uyyyyyyytttuI(^/^^^^^^^^^^^^^/(__",
"__________auauaaw760ttyyyyyyu__uyyyyyyyyytuI^^^^^^^^^^^^^/)//)__",
"_________________*#8ttyyyyyya__uyyyyyyyyyyuI^(//^^^^^^^^^)______",
"_________________*#70tyytyyyu__auy0yyyyyyytKRWRW^^^^^^^//)______",
"_________________##&&6tyyyyyu____ayyyyyyyyydfffjE^^^^^^_________",
"_________________%@@@1tyyyytu_____yyyyyyyyytt00dE///^^/_________",
"_______________>:#&117yyyyyyuss____syyyyyyyyyytinBFPI___________",
"______________=@@##8tttyyyy0yyy_____uyyyyyyyyyyt00zNV___________",
"______________:@&=,8tuttyyyyyyy_____yyyyyytyyuppppxNZ___________",
"____________$%@@<00tyy0yyyyyyyy___uyyyyyyyyyyhMMVMVVZ___________",
"____________$@@#<0yyyyyyyyytyya___yyyyywytyyyfVVVVVVV___________",
"__________==$@17qtyyyyyyyyyta_____yyyyyyyyyyyiffNVVVx2:_________",
"_________:@@@@7yytyyyyyyyyyyu_____yyyyyyyyyyyyyiMVVVx*$_________",
"_________2$%,<8yyyyyyyytyyyyy____ayyyyyyyyyytttuzzxzj2>_________",
"_______uy3#=0yyyyyytyyyyyyy0yyyyyyyyyyyyyyyyttttyytty__=%:______",
"_______ut1#,0yyyyyyyyyyyyyyyyytyyyyyyyyyttttuiuuuuuud__2%>______",
"__auuuutt080tyyyyyyyyyyyyyyyyyyyyyyyyyyytttxmmmmmmmmvau_________",
"__yyyyyyyyyyyytyyyyyyyyyyyyytyyyyyy0yyyyy0ubVVVVVVVVbuy_________",
"__ayyyy0yyyyyyyyyyyyyyyyyyyyyyyyyyyyyyy0ijzMVVVVVVVVBs__________",
"__yyyyyyyyyyyyyy0yyyyyyyyyyyyyyyyyyyyyy0pVNNVVVVVVVVV___________",
"__yyyyyyyyyyyyyyyyyyyyyyyyyyyyyyyyyyyyytfVNNVNVVVVVVA___________",
"__uyyyyyyyyyyyyytyttyytyyyyytyyyyyyyyyyyfNVVVVNVVVNVA___________",
"__uyyyyyyyyyyyyyytttytyyyytyyyyyyyyyyyyyfNVNVNVVVVVVV___________",
"__uwyyyy0ytyyyyyyyuzxgyyyyyyyyyyyyyyy0hxcVVVVVNVVVf8w___________",
"__yyyyyyyyyyyyyttttmZzyyyyyyyyyyyyyyyyxVVVVVVVVVVVw@%___________",
"__uwyyyyyyyyyyy0uffxxftyyyyyyyyyyyyyttfxcNVVVNVVVVu@=___________",
"__uyyyyyyyyyyyy0fVVpttyyyyyyytyyyyyytttyfNVNVVVNVVy@@@*_________",
"__uwu0yyyyyyyyuufVNptttyyyyyyyyyyyyyyyyyfNVVVVVVVVu$@#%_________",
"_____yyyyyyyytzmmNNittttyyyyyyyyyyyyyytwdVVVVNVVVVy@@@%_________",
"_____y0yyyyyyyxVVVNptyytyyyyyyyyyyyyyyytfNVVVNVVVVy$$$%_________",
"_____sswyyyytyfzxVNityyttyyyyyyyyyyyyyywijjzzmVNVVy@@@@:________",
"_______atyyyyyttfVNp0tutyyyyyyyyyyyyyyyyttttyfVVVVa@@#@#%:______",
"_______auuuuyyttpmmfiuttyyyytyyyyyyyyyyyttytyfVVVVy$@@@@#:______",
"____________u00yuuicNjttyyyyyyyyyyyyyyyyyyyyyhVVVVu@#@#@@=______",
"____________0uyuyyumVzttyyyyyyyyyyyyyyyyyyyyyhVVVVy@@@@@#:______",
"_____________________nxziytyyyyyyyyyyyyyyyyyyyw89w<@@@#@#:______",
"______________________Vmuyyyyyyyyyyyyyyyyyyyy3@@@@@@#@@@@:______",
"______________________ABiyyyyyytyyytyyyytyyyy7,,##@@@@@@%=______",
"________________________yyyyyyyyyyttyyyyttyyyty0*#@##@#@@#**____",
"________________________uyyyyyyyyyttyyyyttyyyyy0=$@@$$$$$%$$____",
"________________________________________________________________"
};
