/* XPM */
static char *result[] = {
/* columns rows colors chars-per-pixel */
"64 64 210 2 ",
"   c #262C2D",
".  c #293236",
"X  c #2D3639",
"o  c #323A3D",
"O  c #35373B",
"+  c #272E32",
"@  c #441E1E",
"#  c #491E21",
"$  c #472626",
"%  c #5A2424",
"&  c #562729",
"*  c #463438",
"=  c #593536",
"-  c #5C2F31",
";  c #622424",
":  c #6D2A2D",
">  c #66292A",
",  c #7D2D2D",
"<  c #742E2E",
"1  c #76302F",
"2  c #6A3537",
"3  c #743D3D",
"4  c #7F3C3E",
"5  c #763132",
"6  c #782D30",
"7  c #333D42",
"8  c #7E3F40",
"9  c #3A4245",
"0  c #3A444A",
"q  c #384348",
"w  c #3E4951",
"e  c #45484A",
"r  c #5F4242",
"t  c #434E55",
"y  c #594A51",
"u  c #46535B",
"i  c #49555A",
"p  c #485559",
"a  c #54585B",
"s  c #664344",
"d  c #7B4B49",
"f  c #4C5B63",
"g  c #4A5B65",
"h  c #515C64",
"j  c #635B63",
"k  c #4F606A",
"l  c #4F6067",
"z  c #54636B",
"x  c #5B656C",
"c  c #586568",
"v  c #566671",
"b  c #5C6C75",
"n  c #5D6F7A",
"m  c #566870",
"M  c #5E717B",
"N  c #64686D",
"B  c #646D73",
"V  c #686E73",
"C  c #62727C",
"Z  c #69767B",
"A  c #6C797C",
"S  c #677277",
"D  c #777778",
"F  c #8C2E2E",
"G  c #832C2C",
"H  c #9B312F",
"J  c #8B2E30",
"K  c #842E31",
"L  c #942F31",
"P  c #843233",
"I  c #873839",
"U  c #943133",
"Y  c #9C3333",
"T  c #9D393B",
"R  c #983738",
"E  c #8C302F",
"W  c #A33535",
"Q  c #AA3636",
"!  c #AD3837",
"~  c #A33B3B",
"^  c #AD3B3B",
"/  c #A83738",
"(  c #B43D3D",
")  c #A8403F",
"_  c #A7403F",
"`  c #B8413F",
"'  c #AC3F41",
"]  c #8B4445",
"[  c #8A4A49",
"{  c #834849",
"}  c #964C4D",
"|  c #9D5152",
" . c #8C5456",
".. c #AC4344",
"X. c #A94747",
"o. c #BB4343",
"O. c #B34C4C",
"+. c #B74444",
"@. c #A75455",
"#. c #BA5556",
"$. c #B75A5B",
"%. c #BC5F60",
"&. c #8A6666",
"*. c #9E696C",
"=. c #967B7A",
"-. c #A76B6D",
";. c #BA6465",
":. c #C24A4A",
">. c #C45454",
",. c #637681",
"<. c #657985",
"1. c #6C7D85",
"2. c #647B89",
"3. c #6B7F8A",
"4. c #757C82",
"5. c #767F86",
"6. c #6E818D",
"7. c #72838C",
"8. c #798589",
"9. c #6D8492",
"0. c #738693",
"q. c #758994",
"w. c #7A8B94",
"e. c #7A8D9A",
"r. c #7D919C",
"t. c #6688A6",
"y. c #7A95A9",
"u. c #7C99B1",
"i. c #6C93B4",
"p. c #82898D",
"a. c #848486",
"s. c #818D94",
"d. c #8C8F92",
"f. c #81939C",
"g. c #8C979D",
"h. c #9C989A",
"j. c #A59393",
"k. c #8396A1",
"l. c #8699A3",
"z. c #8B9BA5",
"x. c #8B9EA9",
"c. c #939EA3",
"v. c #979EA5",
"b. c #809FB8",
"n. c #8FA2AC",
"m. c #94A1A5",
"M. c #95A1A9",
"N. c #9DA5AA",
"B. c #9DA9AE",
"V. c #9BA3A6",
"C. c #9CAAB1",
"Z. c #99ABB8",
"A. c #8DA3B9",
"S. c #A3AAAE",
"D. c #A7AAAD",
"F. c #B2A4A4",
"G. c #A4ADB2",
"H. c #AAAEB1",
"J. c #ACB2B5",
"K. c #ACB5B9",
"L. c #A4B3B8",
"P. c #B4B6B7",
"I. c #B5B7BA",
"U. c #B6BABC",
"Y. c #BABABB",
"T. c #B9B6B7",
"R. c #AFAFB0",
"E. c #C1BCBC",
"W. c #98B0C3",
"Q. c #94ADC4",
"!. c #AEBAC1",
"~. c #BCBEC1",
"^. c #B3BCC0",
"/. c #C2BFC1",
"(. c #BCC1C4",
"). c #BCC5C9",
"_. c #8DC2F4",
"`. c #B6DAFB",
"'. c #AAD3FC",
"]. c #C4C4C5",
"[. c #C9C5C6",
"{. c #C5C6C8",
"}. c #C7C8CA",
"|. c #CACACB",
" X c #C9C8C9",
".X c #D3CECD",
"XX c #C5CDD0",
"oX c #CDCFD1",
"OX c #D1CFD2",
"+X c #CED0D1",
"@X c #D3D3D4",
"#X c #D6D6D8",
"$X c #D5D8D9",
"%X c #DDDEDE",
"&X c #D8D7D8",
"*X c #E0DFDF",
"=X c #DFDFE0",
"-X c #C2DEF9",
";X c #E0DFE0",
":X c #DFE0E1",
">X c #C7E2FD",
",X c #CBE5FD",
"<X c #D0E7FD",
"1X c #D1E8FD",
"2X c #DBEEFD",
"3X c #D7E9F7",
"4X c #DFF0FE",
"5X c #E3E3E4",
"6X c #E8E6E7",
"7X c None",
/* pixels */
"7X7X7X7X7X7X7X7X7X7X7X7X7X7X7X7X7X7X7X7X7X7X7X7X7X7X7X7X7X7X7X# # 7X7X7X7X7X7X7X7X7X7X7X7X7X7X7X7X7X7X7X7X7X7X7X7X7X7X7X7X7X7X7X",
"7X7X7X7X7X7X7X7X7X7X7X7X7X7X7X7X7X7X7X7X7X7X7X7X7X7X7X7X7X7X: U E % 7X7X7X7X7X7X7X7X7X7X7X7X7X7X7X7X7X7X7X7X7X7X7X7X7X7X7X7X7X7X",
"7X7X7X7X7X7X7X7X7X7X7X7X7X7X7X7X7X7X7X7X7X7X7X7X7X7X7X7X7X: U ~ +.R % 7X7X7X7X7X7X7X7X7X7X7X7X7X7X7X7X7X7X7X7X7X7X7X7X7X7X7X7X7X",
"7X7X7X7X7X7X7X7X7X7X7X7X7X7X7X7X7X7X7X7X7X7X7X7X7X7X7X7X: E P P O.>.R % 7X7X7X7X7X7X7X7X7X7X7X7X7X7X7X7X7X7X7X7X7X7X7X7X7X7X7X7X",
"7X7X7X7X7X7X7X7X7X7X7X7X7X7X7X7X7X7X7X7X7X7X7X7X7X7X7X> U F , G / +.( L % 7X7X7X7X7X7X7X7X7X7X7X7X7X7X7X7X7X7X7X7X7X7X7X7X7X7X7X",
"7X7X7X7X7X7X7X7X7X7X7X7X7X7X7X7X7X7X7X7X7X7X7X7X7X7X$ ] [ [ [ [ [ [ } [ 8 $ 7X7X7X7X7X7X7X7X7X7X7X7X7X7X7X7X7X7X7X7X7X7X7X7X7X7X",
"7X7X7X7X7X7X7X7X7X7X7X7X7X7X7X7X7X7X7X7X7X7X7X7X7X7XD E./..X.X[.E.E.T.R.h.a 7X7X7X7X7X7X7X7X7X7X7X7X7X7X7X7X7X7X7X7X7X7X7X7X7X7X",
"7X7X7X7X7X7X7X7X7X7X7X7X7X7X7X7X7X7X7X7X7X7X7X7X7XD Y..X%X5X*X&X|.|.|.{.Y.v.l 7X7X7X7X7X7X7X7X7X7X7X7X7X7X7X7X7X7X7X7X7X7X7X7X7X",
"7X7X7X7X7X7X7X7X7X7X7X7X7X7X7X7X7X7X7X7X7X7X7X7X9 R.}.@X=X%X5X@X|.|.|.|.].U.p.X 7X7X7X7X7X7X7X7X7X7X7X7X7X7X7X7X7X7X7X7X7X7X7X7X",
"7X7X7X7X7X7X7X7X7X7X7X7X7X7X7X7X7X7X7X7X7X7X7X7X8.U.U.).$X$X$X).Y.{.{.}.K.J.S.c 7X7X7X7X7X7X7X7X7X7X7X7X7X7X7X7X7X7X7X7X7X7X7X7X",
"7X7X7X7X7X7X7X7X7X7X7X7X7X7X7X7X7X7X7X7X7X7X7Xc g.B.L.!.!.!.!.C.C.L.G.G.C.C.M.f.i 7X7X7X7X7X7X7X7X7X7X7X7X7X7X7X7X7X7X7X7X7X7X7X",
"7X7X7X7X7X7X7X7X7X7X7X7X7X7X7X7X7X7X7X7X7X7Xe 8.L.|.$X%X%X%X@XG.C.U.~.~.~.~.I.H.S 9 7X7X7X7X7X7X7X7X7X7X7X7X7X7X7X7X7X7X7X7X7X7X",
"7X7X7X7X7X7X7X7X7X7X7X7X7X7X7X7X7X7X7X7X7X7Xh G.{.&X%X:X&XoX{.C.B.U.~.].|.|.~.Y.D.p 7X7X7X7X7X7X7X7X7X7X7X7X7X7X7X7X7X7X7X7X7X7X",
"7X7X7X7X7X7X7X7X7X7X7X7X7X7X7X7X7X7X7X7X7Xe w.U.|.%X:X+XT.8.V x c N 4.H.(.|.{.Y.T.8.9 7X7X7X7X7X7X7X7X7X7X7X7X7X7X7X7X7X7X7X7X7X",
"7X7X7X7X7X7X7X7X7X7X7X7X7X7X7X7X7X7X7X7X7Xe C.{.&X:X+Xp.x w.f.q.<.,.C z p.].{.~.T.g.o 7X7X7X7X7X7X7X7X7X7X7X7X7X7X7X7X7X7X7X7X7X",
"7X7X7X7X7X7X7X7X7X7X7X7X7X7X7X7X7X7X7X7X7Xm J.|.%X+Xp.M r.l.w.7.<.,.q.w.z p./.].T.H.a 7X7X7X7X7X7X7X7X7X7X7X7X7X7X7X7X7X7X7X7X7X",
"7X7X7X7X7X7X7X7X7X7X7X7X7X7X7X7X7X7X7X7Xo g.U..XoXp.C 0.0.2.t.i.u.l.,.r.7.f p.Y.T.P.8.+ 7X7X7X7X7X7X7X7X7X7X7X7X7X7X7X7X7X7X7X7X",
"7X7X7X7X7X7X7X7X7X7X7X7X7X7X7X7X7X7X7X7Xo m.{..XT.c q.0.,.Q.'.`.>X3XZ.2.q.C c R.T.S.1.. 7X7X7X7X7X7X7X7X7X7X7X7X7X7X7X7X7X7X7X7X",
"7X7X7X7X7X7X7X7X7X7X7X7X7X7X7X7X7X7X7X7Xo m.|.{.4.6.e.2.Q.>X>X<X4X2X`.u.,.1.n 8.U.H.1.+ 7X7X7X7X7X7X7X7X7X7X7X7X7X7X7X7X7X7X7X7X",
"7X7X7X7X7X7X7X7X7X7X7X7X7X7X7X7X7X7X7X7Xp V. X].B w.q.u.-X>X<X4X2X>X-X-Xr.,.M V U.M.7.w 7X7X7X7X7X7X7X7X7X7X7X7X7X7X7X7X7X7X7X7X",
"7X7X7X7X7X7X7X7X7X7X7X7X7X7X7X7X7X7X7X. 8.K.|.].C g.q.A.,X<X2X2X,X>X<X>Xy.,.C S U.z.f.b 7X7X7X7X7X7X7X7X7X7X7X7X7X7X7X7X7X7X7X7X",
"7X7X7X7X7X7X7X7X7X7X7X7X7X7X7X7X7X7X7X  8.].|.].S g.q.A.1X2X2X,X>X<X,X`.t.C n V U.D.g.b   7X7X7X7X7X7X7X7X7X7X7X7X7X7X7X7X7X7X7X",
"7X7X7X7X7X7X7X7X7X7X7X7X7X7X7X7X7X7X7X  w.|.|. XB e.w.u.<X2X,X>X1X,X`._.t.M l V Y.U.G.B   7X7X7X7X7X7X7X7X7X7X7X7X7X7X7X7X7X7X7X",
"7X7X7X7X7X7X7X7X7X7X7X7X7X7X7X7X7X7X7X  p. X@X|.D 6.w.2.W.-X>X<X>X`._.i.2.1.g A Y.T.K.B 7X7X7X7X7X7X7X7X7X7X7X7X7X7X7X7X7X7X7X7X",
"7X7X7X7X7X7X7X7X7X7X7X7X7X7X7X7X7X7X7Xi g.{.@X&XT.c q.0.<.W.<X,X'._.i.2.9.,.u l.Y.Y.P.6.e 7X7X7X7X7X7X7X7X7X7X7X7X7X7X7X7X7X7X7X",
"7X7X7X7X7X7X7X7X7X7X7X7X7X7X7X7X7X7X7XA K.}.@X%X+Xp.C q.0.3.x.u.i.t.6.q.2.u C L.[./.J.f.h 7X7X7X7X7X7X7X7X7X7X7X7X7X7X7X7X7X7X7X",
"7X7X7X7X7X7X7X7X7X7X7X7X7X7X7X7X7X7X7XA (.|.@X*X*XoXp.n 0.w.6.3.<.M 6.M i S H.}.|.E.J.k.h 7X7X7X7X7X7X7X7X7X7X7X7X7X7X7X7X7X7X7X",
"7X7X7X7X7X7X7X7X7X7X7X7X7X7X7X7X7X7X7XA (.|..X*X*X*XoXp.x 1.9.9.2.M l u A D.{.|.|.Y.J.k.h 7X7X7X7X7X7X7X7X7X7X7X7X7X7X7X7X7X7X7X",
"7X7X7X7X7X7X7X7X7X7X7X7X7X7X7X7X7X7X7XA C.^.+X$X*X*X:X+XU.8.V V N N Z g.G.}.|.|.|.E.S.k.h 7X7X7X7X7X7X7X7X7X7X7X7X7X7X7X7X7X7X7X",
"7X7X7X7X7X7X7X7X7X7X7X7X7X7X7X7X7X7X7XZ B.I.+X@X@X*X*X:X$XoX|.U.R.T.T.Y.{.|.|.|.[.Y.M.1.t 7X7X7X7X7X7X7X7X7X7X7X7X7X7X7X7X7X7X7X",
"7X7X7X7X7X7X7X7X7X7X7X7X7X7X7X7X7X7X7XA C.K.+X:X$X%X*X:X*X$X|.).B.c.P.[.|.|.|.|.Y.S.V.s.u 7X7X7X7X7X7X7X7X7X7X7X7X7X7X7X7X7X7X7X",
"7X7X7X7X7X7X7X7X7X7X7X7X7X7X7X7X7X7X7XA C.(.@X:X*X*X*X%X%X%X:X).D.Y.{.|.|.&X{.|.].M.D.s.f 7X7X7X7X7X7X7X7X7X7X7X7X7X7X7X7X7X7X7X",
"7X7X7X7X7X7X7X7X7X7X7X7X7X7X7X7X7X7X7XD ^.].+X:X*X*X*X*X=X%X6XXXH.|.|.|.|.]. X|./.M.^.K.f 7X7X7X7X7X7X7X7X7X7X7X7X7X7X7X7X7X7X7X",
"7X7X7X7X7X7X7X7X7X7X7X7X7X7X7X7X7X7X7X8.].|.@X:X*X*X$X:X%X=X6XXXJ.{.|.|.]. X X|./.v.H.c.f 7X7X7X7X7X7X7X7X7X7X7X7X7X7X7X7X7X7X7X",
"7X7X7X7X7X7X7X7X7X7X7X7X7X7X7X7X7X7X7Xa.].}.@X:X%X+X5X5X:X*X6XXXJ.[.|.@X%X(.].|./.v.G.c.h 7X7X7X7X7X7X7X7X7X7X7X7X7X7X7X7X7X7X7X",
"7X7X7X7X7X7X7X7X7X7X7X7X7X7X7X7X7X7X7X8.].|.@X*X%X|.6X5X*X*X6XXXJ.[.|.$X6X^.].|./.v.U.K.h 7X7X7X7X7X7X7X7X7X7X7X7X7X7X7X7X7X7X7X",
"7X7X7X7X7X7X7X7X7X7X7X7X7X7X7X7X7X7X7Xa.}.|.@X:X%X@X}.@X=X%X6XXXR. X|.(.K.(.|.|.].v.S.s.h 7X7X7X7X7X7X7X7X7X7X7X7X7X7X7X7X7X7X7X",
"7X7X7X7X7X7X7X7X7X7X7X7X7X7X7X7X7X7X7Xa.|.|.@X*X*X*X%X*X%X%X6XXXJ. X|.|.|.|.|.|.Y.G.N.e.i 7X7X7X7X7X7X7X7X7X7X7X7X7X7X7X7X7X7X7X",
"7X7X7X7X7X7X7X7X7X7X7X7X7X7X7X7X7X7X7XD }.|.@X%X%X*X%X*X%X=X6XXXR.|.|.|.|.|.~.E.T.T.S.w.t 7X7X7X7X7X7X7X7X7X7X7X7X7X7X7X7X7X7X7X",
"7X7X7X7X7X7X7X7X7X7X7X7X7X7X7X7X7X7X7XA ).|.@X*X:X*X*X*X=X%X%X{.H.~.|.|.|.+XH.P.T.T.H.c.h 7X7X7X7X7X7X7X7X7X7X7X7X7X7X7X7X7X7X7X",
"7X7X7X7X7X7X7X7X7X7X7X7X7X7X7X7X7X7X7XA U.}.@X:X=X=X=X=X;X$XXX).B.V.].|.|.J.R.P.P.m.l.r.h 7X7X7X7X7X7X7X7X7X7X7X7X7X7X7X7X7X7X7X",
"7X7X7X7X7X7X7X7X7X7X7X7X7X7X7X7X7X7X* N N.}.+X%X&X5X=X=X#XF.F.h.a.j.F.[.|.P.Y.Y.V.r.r.q.a * 7X7X7X7X7X7X7X7X7X7X7X7X7X7X7X7X7X7X",
"7X7X7X7X7X7X7X7X7X7X7X7X7X7X7X7X7X= @.2 w.^.|.$XOX&X;X%Xj.8 6 , 1 1 I j. X].T.T.G.f.r.M s } 7X7X7X7X7X7X7X7X7X7X7X7X7X7X7X7X7X7X",
"7X7X7X7X7X7X7X7X7X7X7X7X7X7X7X7X= @.$.* w.~.|.$X=X#X=XOX .U L Y Y H E &.].|.].~.Y.L.l.b 2 #.} 7X7X7X7X7X7X7X7X7X7X7X7X7X7X7X7X7X",
"7X7X7X7X7X7X7X7X7X7X7X7X7X7X7Xs -.$.R & 8.].|.@X%X=X=XOX .Y W W Y W H &.].|.|. XP.Y.l.c & _ $.-.7X7X7X7X7X7X7X7X7X7X7X7X7X7X7X7X",
"7X7X7X7X7X7X7X7X7X7X7X7X7X7Xs -.%.R L G r S.|.oX%X%X%XOX&.U W W W W R =.].|.|.].P.J.8.* E L ~ ;.*.7X7X7X7X7X7X7X7X7X7X7X7X7X7X7X",
"7X7X7X7X7X7X7X7X7X7X7X7X7Xs -.%.R L L E * m.{.|.$X=X%XoXS.3 Y ) ) H d Y.}.|.|.~.Y.m.A $ E U L T ;.*.7X7X7X7X7X7X7X7X7X7X7X7X7X7X",
"7X7X7X7X7X7X7X7X7X7X7X7Xs -.$.R H Y W H - B K.{.|.@XoX[.V.d Y ..) H d E.|.|.].Y.H.r.i 2 H Y Y U ' ;.*.7X7X7X7X7X7X7X7X7X7X7X7X7X",
"7X7X7X7X7X7X7X7X7X7X7X= @.$.T Y / ^ ^ W , e z.K.{.}.{.U.c.3 Y O...Y { T.{.[./.T.M.3.* J Q ! ( ~ L T ;.| 7X7X7X7X7X7X7X7X7X7X7X7X",
"7X7X7X7X7X7X7X7X7X7X7X} #.T W ^ o.o.! L % 7Xc C.B.C.C.C.m.3 Y O.X.Y d I.~.~.Y.G.f.g 7X; L ^ o.o./ Y T >.] 7X7X7X7X7X7X7X7X7X7X7X",
"7X7X7X7X7X7X7X7X7X7X2 $.~ W ^ o.:.+.F % 7X7Xi 5.7.7.6.7.4.2 U $.$.L 8 s.d.d.w.C n 0 7X7X; U o.:.o.^ Y ' @.- 7X7X7X7X7X7X7X7X7X7X",
"7X7X7X7X7X7X7X7X7X7X[ O.Y ( o.:.o.E % 7X7X7X7X9 i w l g e - Y ;.$.Y - w h h w g 7 7X7X7X7X% U o.:.o.^ R #.8 7X7X7X7X7X7X7X7X7X7X",
"7X7X7X7X7X7X7X7X7X7X] ~ W o.' ( F % 7X7X7X7X7Xt g m 6.6.u y K ;.@.6 y g 3.2.h g w 7X7X7X7X7X; Y ' :.o.W ..I 7X7X7X7X7X7X7X7X7X7X",
"7X7X7X7X7X7X7X7X7X7X] ) Q o.( Q % 7X7X7X7X7X0 <.g C 9.M i x 2 O.X.2 z g 2.9.,.k C 7 7X7X7X7X7X; ! ( ( Q X.8 7X7X7X7X7X7X7X7X7X7X",
"7X7X7X7X7X7X7X7X7X7X] ) ! ( ( G $ 7X7X7X7X7Xz 7.l 6.r.m l S < X.' 2 Z f n r.2.l 7.a 7X7X7X7X7X$ L ! ( Q X.8 7X7X7X7X7X7X7X7X7X7X",
"7X7X7X7X7X7X7X7X7X7X] ^ ! ! W % 7X7X7X7X7X9 f.b m r.y.m m 5.5 X.X.3 3.h C l.e.z <.0.o 7X7X7X7X7X; Q ( Q ..I 7X7X7X7X7X7X7X7X7X7X",
"7X7X7X7X7X7X7X7X7X7X] ^ Q ! G 7X7X7X7X7Xo b e.h M z.l.v n 5.< ..T 2 5.v b z.z.n z f.z 7X7X7X7X7X# F ! W X.8 7X7X7X7X7X7X7X7X7X7X",
"7X7X7X7X7X7X7X7X7X7X] ) ! W ; 7X7X7X7X7Xf k.1.f 0.A.k.h <.s.5 ' Y 3 f.,.v z.n.3.g 0.w.i 7X7X7X7X7X: Q Q ..I 7X7X7X7X7X7X7X7X7X7X",
"7X7X7X7X7X7X7X7X7X7X] ) Q K 7X7X7X7X7Xo 1.z.b v l.n.3.g 8.g.3 ~ T s z.3.f 0.A.k.k ,.l.C o 7X7X7X7X# J Q ..8 7X7X7X7X7X7X7X7X7X7X",
"7X7X7X7X7X7X7X7X7X7X] ..H ; 7X7X7X7X7Xu w.0.g ,.y.l.b g f.z.j I P N x.s.f ,.k.f.n g w.0.w 7X7X7X7X7X: Y ' 8 7X7X7X7X7X7X7X7X7X7X",
"7X7X7X7X7X7X7X7X7X7X] ) G @ 7X7X7X7X7Xg e.M g 7.e.6.l z e.e.h P K V f.0.f v 3.e.3.g ,.0.t 7X7X7X7X7X# F ..4 7X7X7X7X7X7X7X7X7X7X",
"7X7X7X7X7X7X7X7X7X7X] T % 7X7X7X7X7X7X9 q o . q 0 9 X X 0 0 * J 6 9 7 t . 7 7 7 q . 7 q 9 7X7X7X7X7X7X; ..4 7X7X7X7X7X7X7X7X7X7X",
"7X7X7X7X7X7X7X7X7X7Xd P @ 7X7X7X7X7X7X7X7X7X7X7X7X7X7X7X7X7X7X: : 7X7X7X7X7X7X7X7X7X7X7X7X7X7X7X7X7X7X$ I 8 7X7X7X7X7X7X7X7X7X7X",
"7X7X7X7X7X7X7X7X7X7X7X$ 7X7X7X7X7X7X7X7X7X7X7X7X7X7X7X7X7X7X7X7X7X7X7X7X7X7X7X7X7X7X7X7X7X7X7X7X7X7X7X7X$ 7X7X7X7X7X7X7X7X7X7X7X"
};
