/* XPM */
static char *result[] = {
/* columns rows colors chars-per-pixel */
"64 64 206 2 ",
"   c #442703",
".  c #452904",
"X  c #4A2C05",
"o  c #462D0B",
"O  c #4D3106",
"+  c #4D320C",
"@  c #433B0A",
"#  c #4D3C0A",
"$  c #533306",
"%  c #593707",
"&  c #5A3907",
"*  c #53340A",
"=  c #553A0D",
"-  c #5C3B0A",
";  c #583608",
":  c #4D3310",
">  c #4B3912",
",  c #5C3E11",
"<  c #543812",
"1  c #613E09",
"2  c #1F5E15",
"3  c #3C4A0E",
"4  c #3E420C",
"5  c #3D4D12",
"6  c #364D10",
"7  c #215E16",
"8  c #2B5B18",
"9  c #325513",
"0  c #3B5212",
"q  c #345914",
"w  c #3B5B16",
"e  c #316D0F",
"r  c #3D7D0B",
"t  c #226217",
"y  c #2B6416",
"u  c #2C6916",
"i  c #2E651A",
"p  c #2D6B19",
"a  c #316517",
"s  c #326E15",
"d  c #31651C",
"f  c #3D6318",
"g  c #336D1B",
"h  c #3B6F1D",
"j  c #2D711B",
"k  c #397514",
"l  c #3F7A14",
"z  c #35731C",
"x  c #3C751D",
"c  c #347A1F",
"v  c #3B7B1C",
"b  c #346621",
"n  c #356823",
"m  c #347122",
"M  c #3C7C22",
"N  c #387824",
"B  c #4A420C",
"V  c #46480E",
"C  c #52450C",
"Z  c #5B430C",
"A  c #454F11",
"S  c #404E19",
"D  c #584213",
"F  c #445313",
"G  c #435C14",
"H  c #4A5110",
"J  c #63410A",
"K  c #6A470E",
"L  c #644413",
"P  c #684714",
"I  c #44640E",
"U  c #596907",
"Y  c #467A0D",
"T  c #52710E",
"R  c #446518",
"E  c #426A1A",
"W  c #5C6711",
"Q  c #45721D",
"!  c #437D16",
"~  c #637812",
"^  c #486D28",
"/  c #417E26",
"(  c #437C2A",
")  c #3C8323",
"_  c #4D850E",
"`  c #528B0D",
"'  c #5A840B",
"]  c #5C940B",
"[  c #5E9909",
"{  c #428314",
"}  c #44841C",
"|  c #458A1B",
" . c #4B8C1D",
".. c #488715",
"X. c #528E13",
"o. c #558A14",
"O. c #56911B",
"+. c #638A06",
"@. c #668B0D",
"#. c #638509",
"$. c #6E9405",
"%. c #679F07",
"&. c #65970C",
"*. c #659E09",
"=. c #699E0C",
"-. c #759A04",
";. c #749B0A",
":. c #749808",
">. c #668B12",
",. c #6B8E12",
"<. c #6C9E13",
"1. c #689517",
"2. c #719414",
"3. c #68A007",
"4. c #67A009",
"5. c #6BA309",
"6. c #67A007",
"7. c #7FA106",
"8. c #71A70A",
"9. c #7DA20D",
"0. c #74AB0A",
"q. c #79AE0A",
"w. c #7EB30A",
"e. c #6BA112",
"r. c #6EA019",
"t. c #75A716",
"y. c #428423",
"u. c #428A24",
"i. c #4A8D25",
"p. c #43842A",
"a. c #448C29",
"s. c #4C8E2B",
"d. c #5F8D22",
"f. c #4B9327",
"g. c #46912B",
"h. c #4A932C",
"j. c #4D992E",
"k. c #52942D",
"l. c #569C2B",
"z. c #5C9C2E",
"x. c #529326",
"c. c #498732",
"v. c #4E9B31",
"b. c #4B9531",
"n. c #529531",
"m. c #519D33",
"M. c #599C31",
"N. c #5BA22F",
"B. c #55A132",
"V. c #59A231",
"C. c #6BA121",
"Z. c #64A22C",
"A. c #6DA629",
"S. c #6FA828",
"D. c #75AB27",
"F. c #7DB123",
"G. c #64AC38",
"H. c #819F08",
"J. c #81A506",
"K. c #8DAE06",
"L. c #85A607",
"P. c #8FB006",
"I. c #81B40B",
"U. c #88B70B",
"Y. c #8CB90B",
"T. c #85B80F",
"R. c #94B307",
"E. c #9BB706",
"W. c #98B70D",
"Q. c #94BD0C",
"!. c #9ABD0B",
"~. c #90B40A",
"^. c #88A916",
"/. c #84B413",
"(. c #8ABE16",
"). c #8BB41C",
"_. c #89BA1A",
"`. c #85B318",
"'. c #92B211",
"]. c #97BC15",
"[. c #A2BB06",
"{. c #A0BE0B",
"}. c #9DC10D",
"|. c #9DC012",
" X c #A4C40D",
".X c #AAC60D",
"XX c #AEC90D",
"oX c #B4CC0E",
"OX c #B8CD0E",
"+X c #BCD20E",
"@X c #A6C513",
"#X c #AAC512",
"$X c #ADCB12",
"%X c #B3CC12",
"&X c #B9CE11",
"*X c #BCD214",
"=X c #BED419",
"-X c #C3CE05",
";X c #C7DA0D",
":X c #C0D516",
">X c #C1D618",
",X c #C6DB1D",
"<X c #C8DD1E",
"1X c #E5ED0E",
"2X c #CADF22",
"3X c None",
/* pixels */
"3X3X3X3X3X3X3X3X3X3X3X3X3X3X3X3X3X3X3X3X3X3X3X3X3X3X3X3X3X3X3X3X3X3X3X3X3X3X3X3X3X3X3X3X3X3X3X3X3X3X3X3X3X3X3X3X3X3X3X3X3X3X3X3X",
"3X3X3X3X3X3X3X3X3X3X3X3X3X3X3X3X3X3X3X3X3X3X3X3X3X3X_._.`.3X3X3X3X3X3X3X3X3X3X3X3X3X3X3X3X3X3X3X3X3X3X3X3X3X3X3X3X3X3X3X3X3X3X3X",
"3X3X3X3X3X3X3X3X3X3X3X3X3X3X3X3X3X3X3X3X3X3X3X3X3XF._.|.T./.T.w././.T.3X3X3X3X3X3X3X3X3X3X3X3X3X3X3X3X3X3X3X3X3X3X3X3X3X3X3X3X3X",
"3X3X3X3X3X3X3X3X3X3X3X3X3X3X3X3X3X3X3X3X3X3X3X3X3XF.|.w.w.w.w.I.Q. X}.I./.I.`.3X3X3X3X3X3X3X3X3X3X3X3X3X3X3X3X3X3X3X3X3X3X3X3X3X",
"3X3X3X3X3X3X3X3X3X3X3X3X3X3X3X3X3X3X3X3X3X3X3X/.T.w.w.w.U.}.}. X*X*X.XI.w.w.I./.`././.0.8.<.3X3X3X3X3X3X3X3X3X3X3X3X3X3X3X3X3X3X",
"3X3X3X3X3X3X3X3X3X3X3X3X3X3X3X3X3X3X3X3X3X`.I.Y. X}.Y.}.$X+X+XOX+XOXXXY.I.Y..XQ.I.w.w.w.w.5.e.3X3X3X3X3X3X3X3X3X3X3X3X3X3X3X3X3X",
"3X3X3X3X3X3X3X3X3X3X3X3X3X3X3X3X3X3X|.#X(.I.w.}.=XOXoX=X2X*XOXOXOXOXOXoX X XOXXXU.Y.Q.U.I.5.=.3X3X3X3X3X3X3X3X3X3X3X3X3X3X3X3X3X",
"3X3X3X3X3X3X3X3X3X3X3X3X3X3X3X3X3X/.}.:X.X!.Q.%X=X+XOX=X,X+XOXOXOXOXOXOXOXOXOXOXoXoXOX}.I.q.*.<.3X3X3X3X3X3X3X3X3X3X3X3X3X3X3X3X",
"3X3X3X3X3X3X3X3X3X3X3X3X3X3X3X3X3X`.}.*XOX*X&X<X,XOXOXOXOXOXOXOXOXOXOXOXOXOXOXOXOXOXOXQ.I.q.5.<.3X3X3X3X3X3X3X3X3X3X3X3X3X3X3X3X",
"3X3X3X3X3X3X3X3X3X3X3X3X3X3X3X3X3X3XY.}.oXOXOX=X+X*X*XOXOXOXOXOXOXOXOXOXOXOXOXOXOX XQ.I.w.8.%.*.<.3X3X3X3X3X3X3X3X3X3X3X3X3X3X3X",
"3X3X3X3X3X3X3X3X3X3X3X3X3X3X3X3X3X3X/.U.XXOX*X:X*X2X<X,X*X*X=XOXOXOXOXOXOXOXOXOXoXY.w.w.5.3.*.5.*.4.3X3X3X3X3X3X3X3X3X3X3X3X3X3X",
"3X3X3X3X3X3X3X3X3X3X3X3X3X3X3X3X3X`.Q. X%X,X,X2X2X2X2X2X2X2X<XOXoXOXOXOXOXOXOX.XQ.I.w.I.q.5.5.5.5.*.e.3X3X3X3X3X3X3X3X3X3X3X3X3X",
"3X3X3X3X3X3X3X3X3X3X3X3X3X3X3X3X`.I.$X&X>X2X2X2X2X2X2X2X2X<X*XXXQ.XXOXOXOXOXXXY.I.w.w.I.I.w.w.0.*.=.4.3X3X3X3X3X3X3X3X3X3X3X3X3X",
"3X3X3X3X3X3X3X3X3X3X3X3X3X3X/.Y.!.U. X*X2X2X2X2X2X2X2X2X2X,X%X!.I.Y.}.XX.XY.T.w.0.4.5.8.w.w.I.8.*.*.4.r.3X3X3X3X3X3X3X3X3X3X3X3X",
"3X3X3X3X3X3X3X3X3X3X3X3X3X3XI.$X=X$X%X,X2X2X2X2X2X2X2X2X2X2X*XY.I.w.8.w.I.8.4.4.*.[ [ [ 5.w.0.5.5.5.=.=.=.<.3X3X3X3X3X3X3X3X3X3X",
"3X3X3X3X3X3X3X3X3X3X3X3X3X3X/.|.*XOX*X2X2X2X2X2X2X2X2X2X2X,X*X}.I.8.[ 6.5.[ [ [ [ [ [ *.0.I.w.w.w.5.*.4.*.5.<.3X3X3X3X3X3X3X3X3X",
"3X3X3X3X3X3X3X3X3X3X3X3X3X3X3XI.Y.XX*X*X,X2X2X2X2X<X,X=X*XOXOXQ.q.4.[ [ [ [ [ 6.0.0.0.q.8.8.q.w.w.5.3.5.%.%.*.3X3X3X3X3X3X3X3X3X",
"3X3X3X3X3X3X3X3X3X3X3X3X3X3X3X/.U.$XOX=X<X2X2X2X<X+XOXOXOX}.Y.q.4.[ [ [ [ [ 5.q.U.}.U.w.5.q.w.w.w.5.%.=.*.5.*.r.3X3X3X3X3X3X3X3X",
"3X3X3X3X3X3X3X3X3X3X3X3X3X3X`.I.#X,X*X=X,X,X>X>X*XoXXX}.Q.w.6.*.[ [ 5.0.5.0.w.}.XXOX.XI.w.I.w.I.I.q.0.q.0.*.=.<.3X3X3X3X3X3X3X3X",
"3X3X3X3X3X3X3X3X3X3X3X3X3X3X/.Q.@X&XOXOXOXOXOXOXOX XU.w.I.w.5.8.8.w.U.}.}.}.}.oXOXOXXXU.w.I.I.w.I.I.I.I.0.=.4.3X3X3X3X3X3X3X3X3X",
"3X3X3X3X3X3X3X3X3X3X3X3X3X3Xq.}. XOXOXOXOXOXOXOXOXQ.I.I.I.I.I.U.I.}.oX+XoXXXOXOXOXOXXX}.Y.}.}.Y.I.w.I.w.q.5.4.3X3X3X3X3X3X3X3X3X",
"3X3X3X3X3X3X3X3X3X3X3X3X3X3XF.q.U. XOXOXOXOXOXOXOX}.I.w.w.U..X=XXX+XoXoXOXOXOXOXOXOXOXoXoXOXOX.XI.I.w.I.I.q.=.4.3X3X3X3X3X3X3X3X",
"3X3X3X3X3X3X3X3X3X3X3X3Xc.y.C.C.].@XoXoXoXOXOXOXOXQ.w.I.U.}.>X<X+XoX+XoXOXOXOXOXOXOXOXOXOXOXOX.XI.I.w.w.q.5.3.3.3X3X3X3X3X3X3X3X",
"3X3X3X3X3X3X3Xp.g.j.a.p.) u.e.q.Q. XQ.Y.U.}.}.!.!.U.w.Y.@X].%X*XoX+XoX+XOXOXOXOXOXOXOXOXOXOXOXXXY.I.I.q.5.6.3.3.3X3X3X3X3X3X3X3X",
"3X3X3X3X3X3Xc.a.B.B.v.u.b.g. .4.5.5.q.I.w.I.w.0.8.0.q.}.$X).%XOXOXOXOXOXOXOXoXOXOXOXOXOXOXOXOXoXY.w.q.5.*.*.=.<.3X3X3X3X3X3X3X3X",
"3X3X3X3X3X3Xp.B.F.Z.B.j.v.v.h.u.| ] 8.I.w.0.4.[ [ [ [ 5.Y.XXOXOXOXOXOXOXOXOXOXOXOXOXOX.X}..X XQ.I.0.%.5.*.5.e.3X3X3X3X3X3X3X3X3X",
"3X3X3X3X3Xa.b.B.S.V.v.m.m.m.v.g.) X.5.I.w.0.*.[ [ [ [ 4.q.Y.OXOXOXOXOXOXOXOXOXOXOXOXOX}.I.I.w.q.0.5.[ o.1.d.3X3X3X3X3X3X3X3X3X3X",
"3X3X3Xp.) b.m.m.m.m.m.m.v.B.v.j.) ..5.0.q.I.0.8.4.[ 4.w.w.I..XOXXXXXoXOXOXOXOXOXOXOX.XU.I.I.8.3.*.*._ p n i 3X3X3X3X3X3X3X3X3X3X",
"3X3Xp.h.M.v.m.m.m.m.m.B.V.m.a.u.c u ' %.5.0.0.w.q.4.w.0.w.w.Y.Q.U.Y.Y.}.}.OXOXXXQ.Q.U.I.q.0.3.6.*.` s z M z b 3X3X3X3X3X3X3X3X3X",
"3X3X) V.G.B.m.m.m.m.B.B.V.) ) ) c p G T &.6.%.w.w.w.8.4.0.w.I.I.w.w.w.w.I.Y.}.U.I.w.I.w.8.4.4.6.` g M i.a.N g i d g 3X3X3X3X3X3X",
"3X3Xp.p.B.V.B.m.m.m.m.B.g.) ) ) ) ) c f ' 4.4.8.w.8.4.4.5.5.0.0.q.w.w.q.w.w.w.w.I.q.w.q.3.3.%.3.` z a.n.n.y.M x M M ( 3X3X3X3X3X",
"3X3Xp.u.m.B.B.m.m.m.v.) ) ) ) f f c j u Y [ 6.4.4.[ [ 4.<.*.%.*.6.8.5.6.8.8.w.w.0.*.3.5.%.3.=.] ! M c.M.n.y.M ) M M p.3X3X3X3X3X",
"3X3X) g.b.v.m.v.g.g.) ) ) ) ) h B 0 j j u I U Y k u x 3X3X#.&.=.6.*.<.<.4.5.5.8.] ! _ ] [ ] ` ! y.y.k.Z.z.k.s.s.y.M y.3X3X3X3X3X",
"3X3Xc.g.g.v.j.f.u.) ) ) ) ) ) ) Q H F d u a C 9 t 2 2 3X3XD C 3X3XB 3X3X~ ' ] _ ! M ( M v v / s...r l.S.A.A.A.Z.a.M / 3X3X3X3X3X",
"3X3X3Xa.v.j.u.'.t.) ) ) ) f.g.m.g.g.Q H 3 q G V p 2 7 8 3X3X* 3X3X+ 3X3XO 6 u g y.n.n.n.n.n.s.i.x.x.Z.S.S.S.A.z.s.u./ 3X3X3X3X3X",
"3X3X3X) ) )  .r.| ) ) j.v.v.j.m.m.m.u.) R B # Z q 2 7 3X3X3X= * 3X= 3X< O w M M y.k.n.n.i.s.s.x.M.Z.S.S.S.S.Z.k.Y } M m 3X3X3X3X",
"3X3X3X3X) j.g.) ) u.{ j.m.m.m.m.v.m.a.u.| g H J C 9 3X3X3X3XD * + * < % + ^ / y.{ i.b.s.F ^ p.a.s.Z.A.S.S.A.z.k.u.k e g d 3X3X3X",
"3X3X3Xc.b.g.) ) ) ) | j.m.m.m.m.v.v.u. .| j x G Z = 3X3X3X3X3X& ; $ $ & * 3X3Xz y.y.M R A M Q M y.z.A.A.A.z.k.i.M e u i b 3X3X3X",
"3X3X3X3X3Xg.) ) ) j.j.B.m.m.m.v.g.) y.u.c z o.p q L - 3X3X3X3X- 1 % & 1 * 3X3Xd g z f @ @ F G M y.z.A.A.z.p.i.M x g d b 3X3X3X3X",
"3X3X3X3X3X3X3X) ) j.B.) b.j.g.a.| O.X.v p p h b 3X3XP , 3X3X3X- 1 % & J * 3X3X3X3Xw # @ w v M m M s.z.k./ M M x i b 3X3X3X3X3X3X",
"3X3X3X3X3X3X3X3Xp.) ) M N ) ) ) <.!.E.9.=.-.9.2.3X3X3X3X, * + * J & 1 1 * 3X3X3X3X= @ 8 y g f 3 0 / p.) M M m g b 3X3X3X3X3X3X3X",
"3X3X3X3X3X3X3X3X3XM m N j j ..,.P.XXXXXX X.XE.:.,.3X3X3X3X, ; $ J 1 1 1 * 3X3XL ; O S w 5 V 4 6 a g g g g M g b 3X3X3X3X3X3X3X3X",
"3X3X3X3X3X3X3X3X3X3X3X3X3X^.'.XX.XXXXXXXXXoX!.L.$.>.3X3X3X3XP 1 J J 1 1 X < L ; X o + > 5 q i i d d d i y y u b 3X3X3X3X3X3X3X3X",
"3X3X3X3X3X3X3X3X3X3X3X3X3X'.;X1X+XoXXXXXXX{.P.R.J.$.+.+.3X3X3XK J 1 1 & $ & % X o 3X3X3X3X3X3X3X3X3X3X3Xd d b 3X3X3X3X3X3X3X3X3X",
"3X3X3X3X3X3X3X3X3X3X3X3X3X'..X+X-XXXXXoX X[.P.P.K.K.-.+.3X3X3XK K 1 1 $ 1 % X o 3X3X3X3X3X3X3X3X3X3X3X3X3X3X3X3X3X3X3X3X3X3X3X3X",
"3X3X3X3X3X3X3X3X3X3X3X3X3X3XK.!.OXoXXXXX!.[.P.P.P.J.$.+.3X3X3XP J J 1 & % . o 3X3X3X3X3X3X3X3X3X3X3X3X3X3X3X3X3X3X3X3X3X3X3X3X3X",
"3X3X3X3X3X3X3X3X3X3X3X3X3X3X9.!.XXXXoX XR.K.[.E.K.-.7.~ 3X3X3XP 1 1 1 & X   3X3X3X3X3X3X3X3X3X3X3X3X3X3X3X3X3X3X3X3X3X3X3X3X3X3X",
"3X3X3X3X3X3X3X3X3X3X3X3X3X3X,.7.R. X X[.K.E.-XE.$.+.U + 3X3X3XL 1 1 1 O   X 3X3X3X3X3X3X3X3X3X3X3X3X3X3X3X3X3X3X3X3X3X3X3X3X3X3X",
"3X3X3X3X3X3X3X3X3X3X3X3X3X3X3X,.:.;.L.R.J.H.J.$.+.W = = * : 3XL 1 1 & X . o 3X3X3X3X3X3X3X3X3X3X3X3X3X3X3X3X3X3X3X3X3X3X3X3X3X3X",
"3X3X3X3X3X3X3X3X3X3X3X3X3X3X3X3X3X3X3X2.,.3X>.@.3X3X3X3X3X, : < 1 & 1 X . 3X3X3X3X3X3X3X3X3X3X3X3X3X3X3X3X3X3X3X3X3X3X3X3X3X3X3X",
"3X3X3X3X3X3X3X3X3X3X3X3X3X3X3X3X3X3X3X3X3X3X3X3X3X3X3X3X3X3X* * & & 1 X . 3X3X3X3X3X3X3X3X3X3X3X3X3X3X3X3X3X3X3X3X3X3X3X3X3X3X3X",
"3X3X3X3X3X3X3X3X3X3X3X3X3X3X3X3X3X3X3X3X3X3X3X3X3X3X3X3X3X3X3X% 1 & 1 . o 3X3X3X3X3X3X3X3X3X3X3X3X3X3X3X3X3X3X3X3X3X3X3X3X3X3X3X",
"3X3X3X3X3X3X3X3X3X3X3X3X3X3X3X3X3X3X3X3X3X3X3X3X3X3X3X3X3X3X3X= 1 & 1   . 3X3X3X3X3X3X3X3X3X3X3X3X3X3X3X3X3X3X3X3X3X3X3X3X3X3X3X",
"3X3X3X3X3X3X3X3X3X3X3X3X3X3X3X3X3X3X3X3X3X3X3X3X3X3X3X3X3X3X3X= 1 1 % X . 3X3X3X3X3X3X3X3X3X3X3X3X3X3X3X3X3X3X3X3X3X3X3X3X3X3X3X",
"3X3X3X3X3X3X3X3X3X3X3X3X3X3X3X3X3X3X3X3X3X3X3X3X3X3X3X3X3X3X3X< - J % .   o 3X3X3X3X3X3X3X3X3X3X3X3X3X3X3X3X3X3X3X3X3X3X3X3X3X3X",
"3X3X3X3X3X3X3X3X3X3X3X3X3X3X3X3X3X3X3X3X3X3X3X3X3X3X3X3X3X3X3X3X- 1 % X . o 3X3X3X3X3X3X3X3X3X3X3X3X3X3X3X3X3X3X3X3X3X3X3X3X3X3X",
"3X3X3X3X3X3X3X3X3X3X3X3X3X3X3X3X3X3X3X3X3X3X3X3X3X3X3X3X3X3X3X3X- - % X   o 3X3X3X3X3X3X3X3X3X3X3X3X3X3X3X3X3X3X3X3X3X3X3X3X3X3X",
"3X3X3X3X3X3X3X3X3X3X3X3X3X3X3X3X3X3X3X3X3X3X3X3X3X3X3X3X3X3X3X3X- & & X   . 3X3X3X3X3X3X3X3X3X3X3X3X3X3X3X3X3X3X3X3X3X3X3X3X3X3X",
"3X3X3X3X3X3X3X3X3X3X3X3X3X3X3X3X3X3X3X3X3X3X3X3X3X3X3X3X3X3X3X3X& $ & X . . 3X3X3X3X3X3X3X3X3X3X3X3X3X3X3X3X3X3X3X3X3X3X3X3X3X3X",
"3X3X3X3X3X3X3X3X3X3X3X3X3X3X3X3X3X3X3X3X3X3X3X3X3X3X3X3X3X3X3X3X* $ ; $ . . 3X3X3X3X3X3X3X3X3X3X3X3X3X3X3X3X3X3X3X3X3X3X3X3X3X3X",
"3X3X3X3X3X3X3X3X3X3X3X3X3X3X3X3X3X3X3X3X3X3X3X3X3X3X3X3X3X3X3X3X$ X X ;     o 3X3X3X3X3X3X3X3X3X3X3X3X3X3X3X3X3X3X3X3X3X3X3X3X3X",
"3X3X3X3X3X3X3X3X3X3X3X3X3X3X3X3X3X3X3X3X3X3X3X3X3X3X3X3X3X3X3X3XX X X O     o 3X3X3X3X3X3X3X3X3X3X3X3X3X3X3X3X3X3X3X3X3X3X3X3X3X",
"3X3X3X3X3X3X3X3X3X3X3X3X3X3X3X3X3X3X3X3X3X3X3X3X3X3X3X3X3X3X3X3Xo . o X . o o 3X3X3X3X3X3X3X3X3X3X3X3X3X3X3X3X3X3X3X3X3X3X3X3X3X",
"3X3X3X3X3X3X3X3X3X3X3X3X3X3X3X3X3X3X3X3X3X3X3X3X3X3X3X3X3X3X3X3X3X3X3X3X3X3X3X3X3X3X3X3X3X3X3X3X3X3X3X3X3X3X3X3X3X3X3X3X3X3X3X3X"
};
